<svg xmlns="http://www.w3.org/2000/svg" width="20" height="21" viewBox="0 0 20 21">
    <path fill="#BABBC3" fill-rule="nonzero" d="M10 .468c-5.523 0-10 4.477-10 10s4.477 10 10 10 10-4.477 10-10-4.477-10-10-10zM7.995 14.45H6.178V8.605h1.817v5.844zm-.908-6.643a1.053 1.053 0 1 1 0-2.107 1.053 1.053 0 0 1 0 2.107zm7.711 6.643h-1.815v-2.842c0-.678-.012-1.55-.944-1.55-.945 0-1.09.739-1.09 1.501v2.891H9.134V8.605h1.742v.798h.025c.242-.46.835-.944 1.718-.944 1.84 0 2.18 1.211 2.18 2.785v3.205z" opacity=".3"/>
</svg>
