<svg xmlns="http://www.w3.org/2000/svg" width="20" height="21" viewBox="0 0 20 21">
    <path fill="#BABBC3" fill-rule="nonzero" d="M10 .468c-5.523 0-10 4.477-10 10s4.477 10 10 10 10-4.477 10-10-4.477-10-10-10zm1.082 12.57c-.6 0-1.163-.332-1.357-.708 0 0-.323 1.307-.391 1.56-.115.426-.337.851-.543 1.188-.294.384-.632.1-.673-.25-.013-.39 0-.85.098-1.27l.714-3.092s-.178-.362-.178-.897c0-.841.478-1.469 1.072-1.469.505 0 .75.388.75.852 0 .519-.324 1.295-.491 2.013-.14.602.296 1.092.877 1.092 1.053 0 1.762-1.38 1.762-3.016 0-1.243-.82-2.173-2.312-2.173-1.686 0-2.736 1.283-2.736 2.716 0 .494.142.843.367 1.112.102.124.117.174.08.317l-.113.455c-.037.144-.152.195-.279.142-.776-.324-1.138-1.192-1.138-2.167 0-1.612 1.332-3.544 3.971-3.544 2.122 0 3.518 1.567 3.518 3.25 0 2.226-1.211 3.888-2.998 3.888z" opacity=".3"/>
</svg>
