<svg xmlns="http://www.w3.org/2000/svg" width="20" height="21" viewBox="0 0 20 21">
    <path fill="#BABBC3" fill-rule="nonzero" d="M10 .468c-5.523 0-10 4.477-10 10s4.477 10 10 10 10-4.477 10-10-4.477-10-10-10zm4.047 8.622c.003.076.004.152.004.228 0 2.736-2.082 5.566-5.566 5.566a5.545 5.545 0 0 1-3-.879.047.047 0 0 1-.018-.056.048.048 0 0 1 .05-.03 3.873 3.873 0 0 0 2.734-.716 1.986 1.986 0 0 1-1.725-1.374.048.048 0 0 1 .01-.046.048.048 0 0 1 .044-.015c.22.042.445.045.66.01A1.993 1.993 0 0 1 5.844 9.88v-.026a.047.047 0 0 1 .07-.04 1.9 1.9 0 0 0 .694.224 1.985 1.985 0 0 1-.48-2.554.047.047 0 0 1 .038-.023.046.046 0 0 1 .04.017 5.48 5.48 0 0 0 3.902 2.006 1.99 1.99 0 0 1 3.381-1.77 3.83 3.83 0 0 0 1.192-.46.048.048 0 0 1 .053.004.048.048 0 0 1 .016.052c-.125.392-.37.734-.699.981.31-.054.61-.145.896-.271a.047.047 0 0 1 .058.07 3.96 3.96 0 0 1-.958 1z" opacity=".3"/>
</svg>
