<svg xmlns="http://www.w3.org/2000/svg" width="119" height="60" viewBox="0 0 119 60">
    <defs>
        <linearGradient id="a" x1="6.033%" x2="97.117%" y1="53.897%" y2="45.1%">
            <stop offset="0%" stop-color="#FFCE1F"/>
            <stop offset="100%" stop-color="#F7B436"/>
        </linearGradient>
    </defs>
    <g fill="none" fill-rule="evenodd">
        <path d="M-30.741 64.323L130.74 46.677"/>
        <path fill="url(#a)" fill-rule="nonzero" d="M53.934 8.002l-8.062.597-1.74 16.308-4.439-15.85-8.028.595.017 24.39 6.353-.47-.39-9.061c-.141-3.324-.418-6.111-1.014-9.893l4.743 16.18 6.108-.453 2.098-16.686c-.03 3.372.285 6.682.63 9.92l.984 9.018 6.352-.47-3.612-24.125zm14.649-1.717c-7.051.523-10.74 5.674-10.156 13.563.597 8.063 4.995 12.475 12.046 11.952 7.05-.522 10.772-5.711 10.188-13.6-.597-8.062-5.028-12.437-12.078-11.915zm.344 4.643c3.001-.223 4.563 1.908 4.997 7.772.435 5.864-.759 8.233-3.795 8.458-2.932.217-4.566-1.943-5-7.807-.435-5.864.83-8.204 3.798-8.423zm32.477-6.442l-6.597.488-2.391 19.831-5.602-19.238-6.806.504 8.534 23.76 8.237-.61 4.625-24.735zm7.68-.569l-6.458.478 1.797 24.259 6.457-.478-1.797-24.259zm19.162-1.42l-15.393 1.14 1.797 24.26 15.288-1.133-.339-4.573-8.83.655-.409-5.515 7.225-.536-.328-4.432-7.225.535-.383-5.166 8.272-.613.325-4.621zm11.193-1.46c3.77-.28 6.577.67 8.894 2.57l-2.644 3.635c-1.774-1.202-3.498-1.741-5.418-1.6-1.885.14-2.878.951-2.78 2.277.104 1.397 1.048 1.818 4.766 2.736 4.893 1.147 7.454 3.027 7.78 7.425.338 4.573-3.124 8.058-9.337 8.518-4.433.329-7.588-1.052-9.72-2.824l2.915-3.76c1.889 1.333 3.876 2.099 6.214 1.925 2.234-.165 3.378-1.303 3.262-2.874-.119-1.605-1.008-2.241-4.434-3.005-5.786-1.361-7.775-3.566-8.038-7.126-.329-4.433 3.339-7.512 8.54-7.897z" transform="translate(-31.5 25)"/>
        <path fill="#FFF" d="M23.909 27.443a.548.548 0 0 0 .129-.12c.02-.025.043-.04.066-.042l-.2.127a2.695 2.695 0 0 1-.266.134 1.423 1.423 0 0 1-.301.173 2.598 2.598 0 0 1-.444.152 8.904 8.904 0 0 1-.44.188c-.185.043-.356.085-.517.125-.16.04-.345.084-.55.13l-.526.055a.896.896 0 0 1-.49.05 1.12 1.12 0 0 1-.283-.005l-.244.026a.683.683 0 0 0-.215-.013.67.67 0 0 1-.213-.013.571.571 0 0 0-.178-.017.37.37 0 0 1-.178-.017 2.416 2.416 0 0 1-.293-.075l-.22-.082.039.03c.025.02.088.05.185.088a.271.271 0 0 0 .11.023l.148.055a.37.37 0 0 0 .178.017c.072.016.133.033.182.052.19.026.347.045.464.057a.786.786 0 0 0 .25.009.742.742 0 0 1 .248.01l.524-.055c.094-.011.269-.03.525-.056.207-.046.39-.09.55-.13.187-.042.356-.095.515-.16.09-.032.17-.064.238-.094.068-.031.158-.064.27-.1a1.34 1.34 0 0 0 .373-.18 1.44 1.44 0 0 0 .166-.088 1.33 1.33 0 0 0 .168-.088 2.38 2.38 0 0 1 .23-.166m-7.502-9.5c.08-.125.172-.264.273-.417.079-.15.168-.3.272-.452a2.86 2.86 0 0 1 .344-.424c.103-.13.197-.257.277-.383.039-.075.102-.164.186-.268l.09-.115a.367.367 0 0 1-.094.08l-.135.085a26.874 26.874 0 0 1-.785.931 3.457 3.457 0 0 0-.467.933c-.078.15-.127.249-.146.299a.28.28 0 0 0-.024.107c.024-.002.033-.015.03-.038l.029-.073c.043-.052.062-.09.06-.113.02-.025.03-.05.028-.073.019-.026.04-.052.062-.078m-.42.044c.057-.123.113-.258.168-.406.057-.147.125-.284.205-.41l.553-.8c.228-.284.46-.555.69-.816.257-.262.513-.524.767-.787a14.313 14.313 0 0 1 1.654-1.411 45.837 45.837 0 0 1 1.549-1.082c.244-.143.465-.273.666-.388.176-.113.332-.2.467-.261l.199-.128a.38.38 0 0 0 .17-.053l.105-.01c.024-.003.034-.016.032-.04l-.033.005-.071.007c.002.023-.01.036-.033.038a2.258 2.258 0 0 1-.373.145 3.008 3.008 0 0 0-.502.266 7.31 7.31 0 0 0-.67.352 9.063 9.063 0 0 0-.764.47 7.774 7.774 0 0 0-.787.577c-.306.22-.601.452-.882.694-.258.24-.526.48-.807.72-.516.48-1 1.025-1.455 1.639a2.47 2.47 0 0 0-.274.418c-.101.15-.193.29-.275.417-.08.126-.148.263-.203.41a6.014 6.014 0 0 1-.17.407c-.156.299-.238.532-.244.698l-.073.325.014.14a.343.343 0 0 0-.02.143 2.207 2.207 0 0 0 .018.494c-.004-.024-.006-.06-.012-.106a.582.582 0 0 1 .018-.178.867.867 0 0 1 .012-.214 1.113 1.113 0 0 1 .006-.282c.017-.05.043-.146.076-.291.03-.145.066-.255.105-.33l.174-.372m15.734.044c.106-.341.305-.48.594-.416.289.063.565.223.828.479.286.252.518.569.702.95.089.204.146.386.162.549a.742.742 0 0 1-.063.396c-.365 1.028-.883 2.155-1.555 3.38a18.472 18.472 0 0 1-2.53 3.518 15.171 15.171 0 0 1-3.516 2.845c-1.375.827-2.96 1.347-4.752 1.559-.161.04-.31.079-.446.117a81.39 81.39 0 0 0-.49.052c-.723.076-1.344 0-1.861-.228a3.757 3.757 0 0 1-1.301-.924 3.825 3.825 0 0 1-.78-1.367 4.748 4.748 0 0 1-.261-1.493c-.004-.471.039-.853.125-1.144.092-.27.189-.456.295-.562.105-.13.19-.197.262-.204.095.013.148.055.154.125.027.705.226 1.249.596 1.634.37.386.822.645 1.355.777.576.104 1.19.11 1.84.019a6.112 6.112 0 0 0 1.75-.502c.56-.271 1.023-.58 1.389-.924.36-.368.54-.776.54-1.223-.01-.33-.247-.575-.712-.74-.465-.162-1.06-.312-1.78-.448a291.4 291.4 0 0 1-2.234-.401 9.734 9.734 0 0 1-2.295-.643 5.06 5.06 0 0 1-1.758-1.265c-.375-.431-.601-1.008-.677-1.731l-.004-.035-.014-.14a4.814 4.814 0 0 1-.021-.21 5.223 5.223 0 0 1 .494-2.35 9.535 9.535 0 0 1 1.367-2.123 14.144 14.144 0 0 1 1.859-1.822 18.878 18.878 0 0 1 2.078-1.42 18.082 18.082 0 0 1 1.983-.986c.61-.23 1.127-.365 1.547-.41.396-.041.748.052 1.054.279.309.25.569.588.778 1.013.205.379.367.799.486 1.257.096.462.15.868.164 1.22.016.375-.047.795-.187 1.257a9.454 9.454 0 0 1-.493 1.36c-.218.4-.416.75-.595 1.053-.184.278-.311.42-.381.428l-.524.055a8.984 8.984 0 0 1-.773.047 3.225 3.225 0 0 1-.686-.141c-.218-.071-.328-.201-.324-.39.006-.166.074-.421.2-.764.154-.346.302-.726.449-1.143.146-.392.283-.771.41-1.138.129-.344.197-.598.203-.763-.01-.094-.174-.09-.494.016-.342.106-.77.305-1.281.594-.491.263-1.032.604-1.624 1.02a11.27 11.27 0 0 0-1.632 1.3 8.906 8.906 0 0 0-1.235 1.369c-.326.482-.478.933-.457 1.356.006.07.213.142.623.217.41.098.93.209 1.555.332.646.096 1.334.248 2.062.454.75.18 1.46.436 2.13.766a5.88 5.88 0 0 1 1.67 1.097c.45.448.706.986.773 1.616.027.256.05.489.074.699 0 .236 0 .447-.004.636 1.389-1.135 2.502-2.42 3.342-3.85.863-1.434 1.478-2.748 1.847-3.941"/>
        <path fill="#FFF" d="M43.086 16.519c-.09.268-.139.462-.15.581-.014.096-.03.179-.045.252.02-.049.047-.122.082-.221.041-.074.078-.173.111-.294a2.44 2.44 0 0 1 .072-.325 2.08 2.08 0 0 1 .17-.407c.055-.147.098-.294.131-.438a4.03 4.03 0 0 1 .123-.508c.055-.147.11-.306.162-.477.028-.191.07-.361.123-.508.053-.17.096-.327.127-.472.061-.314.137-.616.223-.907.035-.122.058-.231.072-.327a4.42 4.42 0 0 1 .043-.251c.037-.099.067-.172.084-.221a1.472 1.472 0 0 1-.119.225.786.786 0 0 0-.078.255 4.766 4.766 0 0 0-.108.33 9.73 9.73 0 0 0-.099.399 3.401 3.401 0 0 0-.13.438c-.052.17-.107.34-.157.511a7.322 7.322 0 0 1-.127.473 2.534 2.534 0 0 1-.125.508 5.502 5.502 0 0 0-.127.473c-.106.341-.192.644-.258.911m-2.98 3.247a.523.523 0 0 0 .09-.151.4.4 0 0 1 .015-.178c-.018.049-.035.098-.055.147a.51.51 0 0 1-.09.15 3.04 3.04 0 0 1-.24.414 17.37 17.37 0 0 1-.258.558c-.236.449-.482.911-.738 1.386a8.56 8.56 0 0 1-.449.789c-.139.251-.299.514-.48.794-.16.275-.309.539-.448.789-.162.252-.326.493-.49.723-.102.152-.268.381-.494.688-.08.127-.153.228-.215.306a2.408 2.408 0 0 0-.215.305c-.17.182-.41.467-.724.854a.558.558 0 0 1-.127.119.375.375 0 0 0-.098.081c-.045.028-.065.065-.06.112-.005-.047.015-.084.06-.112a.375.375 0 0 1 .098-.081.558.558 0 0 0 .127-.119c.09-.057.207-.175.351-.355a2.68 2.68 0 0 0 .41-.468c.172-.159.342-.342.51-.548l.492-.689.487-.758c.138-.25.298-.514.482-.793.305-.456.603-.982.894-1.578.14-.25.266-.5.381-.747.116-.248.223-.471.32-.67.096-.199.182-.384.258-.557.08-.15.147-.286.206-.411m-5.047 5.798a.875.875 0 0 0-.188.232 6.007 6.007 0 0 0-.125.154.548.548 0 0 1-.13.119l.032-.038c-.023.002.008-.024.098-.081.041-.052.094-.104.16-.158.041-.052.094-.116.157-.193a1.56 1.56 0 0 0 .257-.239c.086-.08.17-.172.252-.275.084-.103.157-.205.217-.305a1.26 1.26 0 0 0 .246-.344c.38-.44.664-.848.862-1.222l.117-.224c.06-.1.111-.177.154-.229a1.54 1.54 0 0 0 .086-.186 1.043 1.043 0 0 0-.09.151 1.885 1.885 0 0 0-.154.229c-.039.075-.076.149-.117.224-.12.178-.268.37-.434.576-.143.204-.297.42-.463.65a7.498 7.498 0 0 1-.937 1.159m1.963.183c.041-.052.06-.09.058-.113.022-.026.041-.052.063-.077l.062-.078c-.04.052-.103.129-.187.232-.086.079-.18.184-.286.313-.08.127-.185.255-.312.386-.04.052-.094.116-.156.193a1.337 1.337 0 0 1-.192.197 2.083 2.083 0 0 1-.222.236c-.065.077-.125.154-.188.232-.107.105-.277.277-.513.513-.084.08-.245.238-.479.475a1.395 1.395 0 0 0-.297.208.968.968 0 0 1-.226.2.424.424 0 0 1-.163.123.24.24 0 0 0-.169.089 2.424 2.424 0 0 1-.268.134c-.043.051-.086.08-.133.085a.303.303 0 0 0-.135.049 2.566 2.566 0 0 0-.269.134l-.14.015c-.048.005-.08.02-.1.046l-.036.004-.314.033-.105.011a.325.325 0 0 0-.145-.02.252.252 0 0 0-.107-.024.271.271 0 0 1-.11-.024.575.575 0 0 1-.18-.051c-.048.004-.097-.014-.15-.056a.28.28 0 0 0-.107-.024.41.41 0 0 0-.114-.059c-.025-.021-.05-.03-.074-.027l.074.027a.41.41 0 0 1 .114.059c.023-.002.06.018.111.059l.148.056a.833.833 0 0 0 .186.086.926.926 0 0 1 .221.083.77.77 0 0 0 .248.008l.314-.033.141-.014c.07-.008.115-.023.135-.049.07-.008.171-.054.304-.139.047-.005.137-.038.272-.099a1.39 1.39 0 0 1 .301-.173.24.24 0 0 1 .168-.088.565.565 0 0 0 .128-.12c.112-.058.21-.128.297-.208.084-.079.172-.147.26-.204l.258-.238.258-.24c.062-.077.136-.155.222-.235.084-.103.168-.195.254-.275.168-.206.418-.515.75-.927.106-.128.21-.258.315-.386.08-.126.152-.229.215-.305m-6.666-1.881c.035-.121.078-.256.134-.403.055-.147.112-.282.168-.406.032-.145.074-.303.127-.473.055-.147.11-.306.162-.476.076-.174.141-.346.194-.516.052-.171.115-.354.19-.551.128-.343.255-.709.378-1.1.125-.39.26-.781.408-1.174.147-.392.283-.783.406-1.173.124-.39.262-.758.415-1.104.127-.367.23-.72.314-1.059l.29-.949c.085-.292.175-.56.267-.806.091-.245.152-.452.181-.62a.378.378 0 0 0 .05-.218 1.56 1.56 0 0 1 .05-.182c.014-.095.031-.156.053-.182-.055.17-.118.354-.192.55a3.132 3.132 0 0 0-.252.628c-.093.222-.195.481-.306.775-.088.292-.196.61-.325.953a9.55 9.55 0 0 1-.386 1.03c-.15.346-.289.714-.414 1.104-.125.39-.262.77-.41 1.139a16.34 16.34 0 0 1-.405 1.21c-.125.366-.25.745-.375 1.135-.105.341-.209.693-.312 1.058-.082.338-.166.653-.254.946a29.271 29.271 0 0 0-.379 1.453.583.583 0 0 0-.043.253.302.302 0 0 1-.02.143.557.557 0 0 0-.02.143.312.312 0 0 1 .02-.143l.055-.147c.02-.049.045-.123.082-.221a1.39 1.39 0 0 1 .076-.291c.014-.095.037-.205.073-.326m19.082-7.803c.074-.173.236-.202.484-.086.271.113.537.286.797.517.283.23.512.5.687.812.11.153.172.289.184.405.002.023.004.047.008.07a.504.504 0 0 1-.014.213 42.24 42.24 0 0 1-1.736 3.329 28.846 28.846 0 0 1-2.416 3.576c-.87 1.128-1.795 2.099-2.77 2.908-.976.809-1.93 1.263-2.863 1.361a2.271 2.271 0 0 1-1.22-.19 3.18 3.18 0 0 1-1.03-.705 4.861 4.861 0 0 1-.666-.955c-.154-.361-.234-.67-.238-.929.002-.213.052-.607.158-1.183.105-.577.254-1.276.451-2.098a34.866 34.866 0 0 1-1.6 2.607 26.482 26.482 0 0 1-1.642 2.187 11.242 11.242 0 0 1-1.64 1.552c-.55.388-1.08.608-1.593.662-.279.029-.617-.03-1.007-.177-.368-.127-.745-.346-1.13-.659-.363-.291-.67-.672-.933-1.138-.227-.354-.365-.776-.416-1.265a1.744 1.744 0 0 1-.002-.354c-.019-.399.088-1.057.322-1.977.256-.923.584-1.96.981-3.109.351-1.144.744-2.34 1.178-3.587.435-1.249.843-2.411 1.226-3.487.358-1.075.66-2.003.908-2.782.248-.781.373-1.278.375-1.489.004-.189.075-.291.215-.306.117-.013.264.043.442.166.224.117.453.282.687.493.234.212.447.448.641.711.187.215.351.434.492.655.14.197.215.354.226.471.016.14-.109.529-.37 1.17-.237.661-.53 1.47-.878 2.425-.345.955-.722 1.985-1.125 3.088a175.205 175.205 0 0 0-1.117 3.158 74.175 74.175 0 0 0-.853 2.635c-.225.778-.336 1.296-.332 1.554.582-.061 1.252-.533 2.007-1.413.756-.881 1.526-1.963 2.311-3.247a61.019 61.019 0 0 0 2.35-4.206 197.94 197.94 0 0 0 2.072-4.177l1.61-3.174c.43-.847.702-1.277.82-1.288a.997.997 0 0 1 .804.268c.235.212.428.475.578.788.174.312.301.616.38.914.077.299.126.541.146.727-.01.12-.108.53-.295 1.234a87.476 87.476 0 0 1-.72 2.55c-.272.994-.573 2.064-.9 3.205-.306 1.14-.583 2.194-.835 3.163a30.105 30.105 0 0 0-.596 2.396c-.146.629-.174.937-.08.927.582-.061 1.19-.336 1.822-.827.631-.491 1.272-1.124 1.92-1.899a33.42 33.42 0 0 0 1.897-2.815 41.993 41.993 0 0 0 1.838-3.375"/>
        <path fill="#FFF" d="M59.387 17.916c.027-.191.066-.396.113-.612l.082-.575c.026-.191.041-.381.045-.57a4.83 4.83 0 0 1 .047-.571l.018-.496a19.595 19.595 0 0 0 .039-1.313c0-.236 0-.447.004-.636l-.026-.245a.54.54 0 0 0 .016-.178 4.163 4.163 0 0 0-.014-.14 9.624 9.624 0 0 0-.047.57 16.367 16.367 0 0 0-.127 1.463c-.007.166-.015.32-.023.462a3.582 3.582 0 0 1-.053.5l-.082.574a2.463 2.463 0 0 1-.084.539l-.082.575c-.053.171-.09.363-.115.578l-.082.574a5.553 5.553 0 0 1-.186.584 2.02 2.02 0 0 1-.037.323 1.213 1.213 0 0 1-.074.29l-.11.295a1.39 1.39 0 0 1-.077.291l-.11.294a6.198 6.198 0 0 1-.076.291.53.53 0 0 0-.117.225l-.112.294a2.796 2.796 0 0 0-.228.518 3.357 3.357 0 0 1-.23.485l-.12.224-.117.224a1.113 1.113 0 0 0-.12.19c-.04.075-.08.139-.122.189-.106.13-.188.244-.248.345-.082.103-.166.206-.25.309a1.089 1.089 0 0 1-.18.301 1.752 1.752 0 0 0-.222.236l-.344.425c-.002-.023.027-.062.094-.116l.125-.155a.88.88 0 0 0 .197-.126c.045-.029.11-.094.193-.197a.536.536 0 0 1 .127-.119l.094-.117c.082-.126.164-.24.248-.344.105-.105.213-.222.316-.351.041-.052.082-.115.121-.189a.642.642 0 0 1 .157-.194c.04-.075.08-.149.117-.224l.12-.225c.202-.304.368-.639.493-1.007a.954.954 0 0 0 .151-.262c.04-.076.076-.162.113-.26a1.39 1.39 0 0 0 .076-.291c.037-.098.072-.196.11-.295.08-.149.14-.344.187-.584.035-.098.06-.195.074-.291.016-.072.041-.169.076-.29.047-.217.098-.424.147-.617.027-.191.066-.384.115-.578M57.53 9.309c-.067.054-.14.122-.227.201a2.716 2.716 0 0 1-.23.166 2.181 2.181 0 0 0-.223.235 2.51 2.51 0 0 0-.223.235c-.058.102-.12.19-.183.268-.06.1-.12.189-.184.266a2.683 2.683 0 0 1-.184.267l-.119.224c-.125.155-.195.268-.21.341.003.047-.014.096-.057.147.023-.003.054-.041.095-.116a.41.41 0 0 0 .125-.154c.041-.052.081-.116.122-.19.103-.129.205-.281.304-.456a8.48 8.48 0 0 1 .412-.468c.118-.224.264-.393.442-.505l.187-.232a.519.519 0 0 0 .098-.081.375.375 0 0 1 .096-.081c.132-.085.23-.166.293-.243.023-.003.044-.017.066-.043l.035-.004c.024-.002.033-.015.031-.037-.023.002-.068.03-.132.084-.135.061-.247.12-.334.176m.38 13.712l.063-.078c-.004-.023.006-.048.027-.074.024-.002.033-.015.032-.037l-.534.656c-.08.127-.16.253-.242.379a4.05 4.05 0 0 0-.316.351c-.086.08-.2.21-.348.391-.062.077-.18.196-.35.355a3.191 3.191 0 0 0-.392.323 2.404 2.404 0 0 0-.229.166l-.195.162a4.05 4.05 0 0 0-.363.25l-.203.092a1.566 1.566 0 0 0-.168.089c-.246.12-.448.212-.606.275a.392.392 0 0 1-.172.053c-.023.003-.033.016-.03.039l.034-.004a.401.401 0 0 0 .172-.053c.09-.033.193-.068.307-.103.113-.035.226-.083.338-.142.045-.028.101-.058.168-.088a.383.383 0 0 0 .203-.092c.09-.033.224-.106.4-.219a1.55 1.55 0 0 0 .426-.327c.111-.059.254-.169.424-.328.234-.237.455-.495.66-.776a5.38 5.38 0 0 0 .742-1.033 1.45 1.45 0 0 0 .152-.227m-1.494-11.862l-.502.618a6.526 6.526 0 0 0-.642.952c-.12.177-.244.355-.367.533a7.74 7.74 0 0 1-.327.6c-.119.201-.23.389-.33.565a7.553 7.553 0 0 0-.332.53 3.295 3.295 0 0 1-.295.561 3.504 3.504 0 0 1-.234.449 2.693 2.693 0 0 0-.379.781.94.94 0 0 0-.113.26c.04-.075.088-.162.148-.264.037-.098.086-.196.147-.297.056-.124.148-.264.273-.418.078-.15.168-.312.268-.488.101-.151.201-.327.3-.525.096-.177.208-.353.331-.531.1-.175.21-.364.33-.565.12-.201.228-.401.324-.6a7.1 7.1 0 0 0 .334-.529 7.32 7.32 0 0 1 .303-.491c.101-.153.216-.295.343-.426a2.98 2.98 0 0 0 .24-.414c.057-.123.116-.225.18-.301a.868.868 0 0 1 .188-.232 16.01 16.01 0 0 0-.188.232m-3.642 3.352a9.09 9.09 0 0 0-.198.481 2.215 2.215 0 0 0-.136.367 1.184 1.184 0 0 0-.11.329c-.002-.023.008-.047.03-.073l.117-.225c.037-.098.096-.221.174-.371.054-.148.12-.308.197-.48a6.48 6.48 0 0 1 .332-.53c.1-.176.207-.375.326-.6.098-.199.215-.412.358-.639.12-.201.252-.404.396-.607.26-.428.535-.846.82-1.253.243-.402.498-.759.772-1.071.103-.152.193-.291.275-.417.108-.106.192-.197.254-.275a.562.562 0 0 0 .09-.15c-.002-.024.006-.048.027-.074l.063-.078-.063.078-.156.193a3.44 3.44 0 0 1-.254.275 5.042 5.042 0 0 0-.308.421 2.637 2.637 0 0 0-.413.467c-.12.178-.253.368-.398.572l-.43.611c-.12.201-.263.416-.427.646-.12.202-.24.403-.362.604a7.58 7.58 0 0 0-.357.638c-.117.224-.225.424-.324.6-.098.198-.196.385-.295.561m-1 6.963c-.006.401.006.847.035 1.339a94 94 0 0 0 .04.385c.04.373.1.72.18 1.041.116.436.296.795.538 1.075.238.258.545.368.918.329.791-.084 1.486-.416 2.086-.998.623-.583 1.171-1.302 1.646-2.153.45-.895.826-1.889 1.137-2.982a27.07 27.07 0 0 0 .648-3.25c.19-1.104.303-2.164.338-3.182.037-.993.016-1.863-.062-2.609-.52.219-1.123.766-1.807 1.639-.63.726-1.412 1.822-2.342 3.287-.929 1.464-2.049 3.491-3.355 6.079m-1.086-8.653a8.15 8.15 0 0 1 .092-.469c.01-.119.035-.227.072-.326a.444.444 0 0 0 .086-.186l-.004-.035-.004-.035-.035.004c-.06.313-.143.663-.242 1.051-.082.339-.196.728-.338 1.166-.119.437-.254.946-.405 1.528a205.032 205.032 0 0 1-1.086 3.791 620.232 620.232 0 0 0-1.203 4.368l-2.32 8.197c-.357 1.31-.71 2.538-1.062 3.683.002.023.015.033.04.03.014-.071.042-.157.077-.255l.111-.295c.035-.121.078-.267.131-.437.103-.365.226-.755.373-1.171a15.4 15.4 0 0 0 .475-1.535c.177-.537.375-1.135.587-1.793.194-.634.383-1.29.573-1.969.207-.705.416-1.423.621-2.152.23-.731.447-1.472.65-2.225.203-.752.397-1.49.58-2.217.207-.728.403-1.444.588-2.147.205-.728.393-1.408.563-2.038.17-.631.318-1.224.45-1.78.083-.316.15-.593.194-.834.07-.242.125-.484.172-.725.068-.242.115-.459.143-.651.05-.194.09-.375.121-.543m-6.09 23.122c.08-.361.172-.713.277-1.053.108-.342.192-.657.254-.947.065-.289.141-.58.23-.872l-.085.221a1.707 1.707 0 0 0-.112.294c-.033.122-.068.244-.1.365a3.449 3.449 0 0 1-.132.438 2.456 2.456 0 0 0-.127.472 4.71 4.71 0 0 0-.193.515 4.058 4.058 0 0 0-.157.547 3.295 3.295 0 0 1-.119.544 2.785 2.785 0 0 0-.127.472c-.058.336-.133.65-.218.942-.086.292-.135.51-.145.651l-.039.288c.016-.073.041-.157.078-.256a.8.8 0 0 0 .08-.256 9.65 9.65 0 0 0 .1-.399c.033-.122.078-.256.135-.403.054-.147.095-.316.123-.507l.158-.513a6.46 6.46 0 0 1 .12-.543M66.36 14.284c.13-.343.347-.495.658-.457.291.064.578.234.867.509.31.251.555.567.736.948.09.179.141.34.157.479a.985.985 0 0 1-.059.465c-.408 1.034-.973 2.165-1.69 3.395a17.211 17.211 0 0 1-2.667 3.568c-1.06 1.124-2.313 2.104-3.756 2.94-1.446.835-3.11 1.364-4.996 1.586l-.069.007-.035.004-.07.007a4.462 4.462 0 0 1-1.61-.184 5.17 5.17 0 0 1-1.382-.704 5.794 5.794 0 0 1-1.065-1.054 8.555 8.555 0 0 1-.832-1.186 260.627 260.627 0 0 0-1.455 5.667 224.22 224.22 0 0 0-1.268 5.083 125.443 125.443 0 0 0-.912 3.772c-.224 1.014-.324 1.625-.302 1.835.013.116-.039.181-.157.193a1.153 1.153 0 0 1-.357-.033 6.883 6.883 0 0 1-1.207-.404 5.547 5.547 0 0 1-1.275-.679c-.38-.266-.582-.504-.604-.714-.014-.116.098-.634.332-1.554.258-.899.582-2.065.975-3.496.388-1.455.843-3.083 1.361-4.881a490.635 490.635 0 0 1 1.578-5.503 706.656 706.656 0 0 0 1.535-5.57 256.9 256.9 0 0 0 1.352-4.95c.39-1.455.697-2.677.924-3.667.252-.97.367-1.547.347-1.734-.058-.558.04-.852.297-.879l.035-.004c.256-.027.565.094.922.363a6.15 6.15 0 0 1 1.024.988c.326.413.504.76.533 1.039.012.118-.027.416-.119.897a40.36 40.36 0 0 1-.406 1.846c.867-1.387 1.701-2.547 2.498-3.48.82-.934 1.533-1.434 2.14-1.497.326-.035.662.036 1.012.212.351.198.693.539 1.025 1.022.332.461.633 1.089.907 1.885.25.823.437 1.816.56 2.981.066.63.078 1.312.04 2.047a23 23 0 0 1-.249 2.359 21.505 21.505 0 0 1-.523 2.424 22.362 22.362 0 0 1-.774 2.379c.811-.58 1.533-1.21 2.17-1.89a22.64 22.64 0 0 0 1.756-2.129c.484-.758.902-1.497 1.25-2.217.348-.744.63-1.422.848-2.034"/>
        <path fill="#FFF" d="M75.74 22.49c.11-.083.208-.164.294-.244.086-.079.162-.146.227-.2-.065.054-.153.11-.266.17-.086.08-.195.162-.326.246a2.187 2.187 0 0 0-.364.25 4.034 4.034 0 0 1-.47.226 1.31 1.31 0 0 1-.27.135c-.066.03-.144.073-.232.13a5.865 5.865 0 0 1-.27.134 7.78 7.78 0 0 1-.308.104 1.336 1.336 0 0 1-.268.133 2.019 2.019 0 0 0-.234.132c-.09.033-.182.054-.276.064a10.74 10.74 0 0 1-.306.103 11.12 11.12 0 0 0-.481.157l-.244.025a.682.682 0 0 1-.205.057c-.09.033-.23.06-.416.08-.09.032-.193.055-.311.067l-.105.011a.269.269 0 0 1-.102.046l-.068.007.279-.029.315-.033a1.94 1.94 0 0 0 .416-.079c.185-.02.336-.047.449-.083a2.92 2.92 0 0 0 .518-.125c.115-.035.205-.068.273-.099.092-.01.197-.033.31-.069.092-.033.17-.065.239-.095a.874.874 0 0 0 .307-.103.463.463 0 0 1 .267-.134c.068-.03.158-.076.27-.135l.502-.265c.154-.11.308-.209.464-.295.13-.085.264-.18.393-.29m-.848-11.435a.103.103 0 0 0-.027.074c-.021.026-.03.062-.025.108a.224.224 0 0 1-.024.11 2.28 2.28 0 0 1-.138.368c-.034.121-.1.27-.2.444a3.077 3.077 0 0 1-.236.45l-.295.561-.187.232c-.06.1-.122.19-.184.267a1.24 1.24 0 0 0-.22.27c-.085.08-.173.148-.261.204-.041.052-.115.13-.222.236a.526.526 0 0 1-.13.12c-.046.004-.091.032-.13.084a2.279 2.279 0 0 1-.527.373c-.09.056-.19.103-.303.138a1.413 1.413 0 0 0-.27.134 1.5 1.5 0 0 1-.513.161l-.408.148-.385.041a.794.794 0 0 1-.242.061l-.071.007.317-.033.383-.04a.675.675 0 0 0 .207-.058l.246-.025c.066-.03.146-.063.236-.096.094-.01.186-.03.275-.064a1.31 1.31 0 0 1 .27-.135 1.35 1.35 0 0 0 .305-.137c.11-.059.199-.116.263-.17.088-.056.19-.114.3-.173a.558.558 0 0 1 .128-.119.582.582 0 0 0 .13-.12c.065-.053.14-.132.222-.235a.814.814 0 0 0 .296-.208c.06-.1.135-.19.219-.27.06-.1.12-.19.186-.268.062-.077.123-.166.183-.266a.916.916 0 0 1 .149-.263c.06-.1.109-.2.146-.298.035-.099.074-.185.114-.26a.905.905 0 0 1 .082-.22c.1-.177.156-.323.166-.442.035-.122.07-.232.107-.33a5.97 5.97 0 0 1 .068-.36m-4.82 4.254c.979-.103 1.783-.412 2.412-.926a5.321 5.321 0 0 0 1.479-1.746 9.167 9.167 0 0 0 .8-2.134c.159-.747.278-1.409.358-1.983a.668.668 0 0 1-.213-.012l-.211.022c-.465.05-.95.265-1.451.647-.502.383-.99.894-1.465 1.533a13.58 13.58 0 0 0-1.332 2.12 16.56 16.56 0 0 0-1.088 2.447c.172.053.408.064.71.032m-2.052-4.063a1.886 1.886 0 0 0-.086.186c-.02.05-.037.1-.056.148a.236.236 0 0 1 .095-.116c.018-.05.045-.11.086-.186.104-.129.217-.293.336-.495.145-.203.299-.408.467-.614.08-.126.162-.242.246-.344.084-.104.178-.219.28-.349l.314-.386c.13-.108.246-.237.348-.39.105-.128.222-.247.35-.355l.384-.394c.129-.13.268-.252.422-.362.156-.087.299-.184.43-.293.302-.244.625-.43.964-.56.268-.146.586-.263.955-.349l.489-.05c.164-.018.328-.012.496.018.047-.005.084.003.109.024l.106-.01a.275.275 0 0 0 .107.022.264.264 0 0 1 .109.024.247.247 0 0 0 .108.024.276.276 0 0 1 .109.025.235.235 0 0 0 .182.05c.244.07.48.186.709.35.098.038.185.088.264.15.076.063.152.113.226.152l.154.125c.03.045.069.076.118.094.052.041.087.062.11.06a.4.4 0 0 1-.08-.098 2.617 2.617 0 0 1-.273-.254l-.193-.156a.709.709 0 0 1-.268-.184 3.952 3.952 0 0 1-.335-.177 1.374 1.374 0 0 0-.375-.209.556.556 0 0 1-.22-.047.777.777 0 0 0-.185-.087 1.509 1.509 0 0 1-.252-.044.289.289 0 0 0-.11-.024.241.241 0 0 1-.106-.024 4.957 4.957 0 0 0-.813.015l-.244.025c-.16.04-.332.082-.516.125a3.33 3.33 0 0 0-.545.2 4.46 4.46 0 0 0-.935.522 3.758 3.758 0 0 0-.492.37c-.13.108-.27.228-.42.362-.13.131-.256.262-.385.393-.104.13-.22.26-.348.39a6.903 6.903 0 0 0-.621.808l-.525.727a5.947 5.947 0 0 0-.424.681 4.483 4.483 0 0 1-.266.487m-.675 1.981c.06-.1.107-.2.144-.299.06-.1.12-.2.182-.3.037-.1.084-.199.144-.3a.818.818 0 0 0 .147-.297l.269-.454c.104-.15.205-.292.309-.42.084-.104.144-.204.18-.302.042-.052.062-.089.06-.112.022-.026.04-.052.063-.078-.002-.023.017-.049.062-.076-.023.002-.045.027-.062.076l-.063.078c.002.023-.018.06-.06.112l-.217.271c-.106.128-.21.257-.315.386-.037.074-.09.151-.152.228a.955.955 0 0 0-.15.263c-.06.101-.12.19-.182.267a1.984 1.984 0 0 1-.145.298l-.181.302a1.984 1.984 0 0 1-.145.298c-.097.198-.205.422-.318.67-.035.121-.072.23-.108.33a4.27 4.27 0 0 0-.107.328c-.033.121-.07.232-.107.33a4.043 4.043 0 0 0-.106.33c-.035.121-.06.23-.072.325a1.381 1.381 0 0 1-.076.29c-.022.24-.05.43-.08.574a5.752 5.752 0 0 0-.053.501c-.01.142-.008.272.004.388a.304.304 0 0 0-.02.144c.008.07.026.127.053.171l-.01-.105a.64.64 0 0 1 .012-.213.392.392 0 0 0 .016-.179.43.43 0 0 1 .017-.178l.05-.536a.374.374 0 0 0 .048-.217c.013-.095.037-.204.072-.325.037-.099.063-.196.076-.292.014-.095.037-.203.072-.326.034-.12.069-.23.106-.329a4.27 4.27 0 0 0 .107-.329c.037-.098.084-.197.145-.299.037-.097.072-.207.107-.329.034-.12.08-.244.137-.367.06-.1.109-.2.147-.298m14.3-.478c.295.11.575.304.84.583.244.304.387.654.43 1.051.023.233-.072.667-.29 1.302a16.037 16.037 0 0 1-1.005 2.192c-.432.823-.955 1.68-1.568 2.57a16.968 16.968 0 0 1-2.14 2.521 13.103 13.103 0 0 1-2.546 2 7.249 7.249 0 0 1-2.938.98c-.7.074-1.421-.074-2.167-.444a9.372 9.372 0 0 1-2.176-1.538 10.023 10.023 0 0 1-1.65-2.23c-.465-.847-.743-1.702-.835-2.564-.086-.816-.037-1.705.145-2.667.18-.984.453-1.956.824-2.914.393-.984.848-1.928 1.363-2.83a17.8 17.8 0 0 1 1.72-2.479c.632-.726 1.277-1.312 1.937-1.758.68-.472 1.347-.743 2-.81.863-.092 1.572.034 2.125.376.552.32.984.721 1.295 1.207.328.438.525.852.589 1.246.155.785.018 1.954-.408 3.508a8.694 8.694 0 0 1-1.195 2.423 7.616 7.616 0 0 1-1.82 1.852 4.852 4.852 0 0 1-2.377.922c-.608.064-1.143.013-1.608-.15a4.517 4.517 0 0 1-1.234-.647c-.373 1.382-.502 2.633-.383 3.752.04.396.107.802.197 1.216.092.415.213.791.367 1.13.15.313.356.573.614.782.254.186.556.26.906.223a7.202 7.202 0 0 0 2.906-.94 11.49 11.49 0 0 0 2.387-1.843 14.121 14.121 0 0 0 1.873-2.353c.527-.81.977-1.588 1.346-2.333.39-.772.687-1.428.888-1.968.204-.54.342-.896.418-1.069.198-.374.528-.492.989-.35.048.017.109.034.18.051"/>
        <path fill="#FFF" d="M85.455 16.024a2.656 2.656 0 0 1-.012-.104.306.306 0 0 0 .02-.144c-.002-.023.008-.048.027-.074-.019.026-.029.051-.027.074-.02.026-.028.062-.024.108a.287.287 0 0 1-.023.11 6.44 6.44 0 0 0-.1.4 4.115 4.115 0 0 0-.095.433c-.03.168-.07.348-.12.542a7.85 7.85 0 0 0-.078.61 1.338 1.338 0 0 1-.076.29c-.01.12-.02.238-.033.357-.008.142-.02.356-.039.641-.008.142-.008.26.002.353-.01.12-.01.237.002.354a.704.704 0 0 0 .033.314c.01.093.01.2-.002.318.035.115.061.23.072.346.01.094.032.185.065.277a.307.307 0 0 1 .05.136.305.305 0 0 0 .05.136.57.57 0 0 0 .095.237.54.54 0 0 0 .096.237c.051.042.078.075.08.098.023-.002.05.02.078.062l.092.203c.051.042.09.085.12.128l.153.126c.002.023.018.045.043.066l.035-.004-.035.004-.043-.066a.453.453 0 0 1-.123-.163.837.837 0 0 1-.21-.332c-.026-.02-.042-.043-.044-.066a.233.233 0 0 0-.047-.1c-.078-.088-.12-.154-.125-.2a.318.318 0 0 1-.05-.136.32.32 0 0 0-.049-.137l-.016-.14c-.025-.02-.04-.055-.045-.1a1.152 1.152 0 0 1-.064-.277c-.012-.116-.026-.232-.037-.35l-.033-.314a1.61 1.61 0 0 1 .001-.318 1.397 1.397 0 0 1 .002-.318 2.255 2.255 0 0 1-.002-.353c.012-.12.012-.226.002-.32a.683.683 0 0 1 .07-.36c.01-.119.01-.225.001-.318.013-.096.04-.193.076-.29a7.51 7.51 0 0 1 .076-.61c.027-.192.055-.37.084-.539.03-.404.07-.679.127-.827m-.787 2.947a.288.288 0 0 1-.024.108 2.458 2.458 0 0 0-.076.29c-.006.166-.013.321-.02.463-.009.166-.013.342-.017.532.045.42.113.742.21.967a.833.833 0 0 0 .136.304.29.29 0 0 1 .047.101c-.028-.02-.04-.055-.047-.1l-.014-.14a.375.375 0 0 1-.054-.172 2.877 2.877 0 0 1-.083-.45 250.89 250.89 0 0 1-.054-.525l.017-.497a2.104 2.104 0 0 1-.007-.423c-.022-.187-.022-.304-.002-.354-.004-.023-.006-.058-.012-.104M83.244 6.43a.884.884 0 0 1 .082-.22c.037-.099.063-.184.08-.256a.853.853 0 0 0 .082-.22c.018-.074.031-.157.045-.253a.373.373 0 0 1 .06-.112.348.348 0 0 1 .018-.144.356.356 0 0 0 .053-.182c.033-.122.06-.218.076-.29a2.656 2.656 0 0 1-.012-.105l-.003-.036a.447.447 0 0 1-.059.113.304.304 0 0 1-.022.143 3.68 3.68 0 0 1-.054.147c-.03.145-.065.29-.096.435a8.747 8.747 0 0 1-.162.476 9.098 9.098 0 0 1-.162.477 1.89 1.89 0 0 1-.17.406 2.49 2.49 0 0 1-.102.364l-.03.04.034-.004c-.004-.024.006-.048.028-.074a.504.504 0 0 1 .09-.15c-.006-.047.013-.096.054-.148.037-.098.094-.234.17-.407m-1.396.182c.164.196.416.37.761.521.395-1.196.721-2.232.983-3.107a.624.624 0 0 0 .041-.288c-.018-.163-.106-.318-.262-.467-.252-.162-.494-.23-.729-.207-.373.04-.72.324-1.04.852-.249.568-.348 1.074-.3 1.517.046.443.227.836.546 1.18m-2.104-2.536a.987.987 0 0 1-.049.216 4.404 4.404 0 0 1-.054.148c.002.022.005.058.011.105l.004.035c.02-.026.028-.074.02-.143a.208.208 0 0 1 .054-.148.251.251 0 0 1 .053-.182.46.46 0 0 1 .086-.187.789.789 0 0 1 .08-.254c.035-.099.063-.184.078-.257.018-.073.043-.157.08-.256a.938.938 0 0 0 .15-.262.84.84 0 0 1 .077-.257.82.82 0 0 0 .084-.22l.117-.224c.057-.148.104-.247.147-.299a.146.146 0 0 0 .023-.108l-.004-.035c-.017.05-.037.097-.055.147-.045.028-.105.117-.185.267a4.009 4.009 0 0 1-.199.445 62.52 62.52 0 0 0-.229.52 8.701 8.701 0 0 0-.162.475c-.05.194-.094.352-.127.474m-.09-.522l-.03.04c.001.022.003.046.007.07l.004.034.054-.148a.343.343 0 0 1 .051-.182.728.728 0 0 0 .088-.186.81.81 0 0 0 .078-.255c.037-.098.076-.184.113-.259a.452.452 0 0 1 .088-.186.424.424 0 0 0 .06-.112.355.355 0 0 1 .054-.147c.045-.029.074-.079.09-.152.02-.048.068-.148.146-.297a.909.909 0 0 0 .148-.264.891.891 0 0 0 .15-.262.605.605 0 0 0 .155-.194.86.86 0 0 1 .16-.159c-.004-.046.018-.07.065-.076-.004-.024.006-.048.027-.074a.483.483 0 0 0 .098-.08l.035-.004-.039-.032a1.22 1.22 0 0 1-.129.12l-.133.085a1.14 1.14 0 0 0-.16.157 3.743 3.743 0 0 1-.19.197.433.433 0 0 1-.099.082 1.052 1.052 0 0 1-.09.15c-.06.1-.12.19-.184.267a1.9 1.9 0 0 1-.146.298 1.63 1.63 0 0 1-.145.298 4.99 4.99 0 0 1-.142.334c-.053.17-.092.351-.119.542-.05.194-.073.326-.065.395m14.352 8.072c.115-.248.326-.376.631-.384.332.012.648.108.951.29.3.156.556.376.775.66.137.173.213.342.231.506a.714.714 0 0 1-.037.322c-.114.27-.313.728-.6 1.37a20.711 20.711 0 0 1-1.148 2.171 29.015 29.015 0 0 1-1.536 2.566 21.018 21.018 0 0 1-1.757 2.446 14.129 14.129 0 0 1-1.885 1.895c-.606.512-1.2.8-1.785.86-.139.014-.403-.04-.793-.164s-.79-.342-1.202-.652a4.73 4.73 0 0 1-1.148-1.187c-.332-.46-.535-1.04-.607-1.739-.096-.909-.012-1.896.254-2.96.29-1.068.603-2.102.947-3.105a161.24 161.24 0 0 1 1.013-2.793c.29-.832.411-1.469.366-1.912-.01-.093-.19-.216-.535-.368-.366-.126-.756-.25-1.17-.372-.33.884-.709 1.877-1.135 2.983a78.764 78.764 0 0 1-1.139 2.947c-.129.368-.324.506-.594.416-.267-.09-.546-.272-.835-.548a3.985 3.985 0 0 1-.667-.955 1.813 1.813 0 0 1-.16-.514.642.642 0 0 1 .065-.396c.252-.756.521-1.55.81-2.382a56.53 56.53 0 0 1 .807-2.418 5.979 5.979 0 0 1-2.059-1.092c-.443-.637-.697-1.258-.76-1.864-.007-.047-.009-.082-.013-.105.004-3.11.82-4.752 2.451-4.924.7-.073 1.533.122 2.502.586 2.016 1.25 2.572 3.17 1.666 5.763a14.321 14.321 0 0 1-.43 1.283c.412.121.864.274 1.356.46.49.182.937.395 1.338.635.447.213.804.47 1.072.771.29.3.455.625.49.974.026.233-.047.665-.217 1.296a26.544 26.544 0 0 1-.656 2.154 58.782 58.782 0 0 1-.762 2.52 45.18 45.18 0 0 0-.705 2.372 20.419 20.419 0 0 0-.379 1.771c-.046.452.036.668.245.646.396-.042.832-.276 1.304-.703.471-.45.946-.995 1.42-1.633.473-.663.926-1.382 1.364-2.158a67.94 67.94 0 0 0 1.212-2.249c.35-.72.661-1.354.932-1.9.246-.569.418-.964.512-1.186"/>
    </g>
</svg>
