<svg xmlns="http://www.w3.org/2000/svg" width="92" height="46" viewBox="0 0 92 46">
    <defs>
        <linearGradient id="a" x1="6.033%" x2="97.117%" y1="53.897%" y2="45.1%">
            <stop offset="0%" stop-color="#FFCE1F"/>
            <stop offset="100%" stop-color="#F7B436"/>
        </linearGradient>
    </defs>
    <g fill="none" fill-rule="evenodd">
        <path d="M-23.416 49.48L100.8 35.904"/>
        <path fill="url(#a)" fill-rule="nonzero" d="M41.488 6.155l-6.202.46-1.339 12.545-3.414-12.193-6.175.457.013 18.762 4.887-.362-.3-6.97c-.11-2.556-.322-4.7-.78-7.61l3.648 12.446 4.699-.348 1.614-12.835c-.024 2.594.219 5.14.484 7.631l.757 6.936 4.886-.362-2.778-18.557zm11.268-1.32c-5.424.402-8.262 4.364-7.812 10.432.46 6.203 3.842 9.597 9.266 9.195 5.423-.402 8.286-4.394 7.837-10.462-.46-6.202-3.867-9.567-9.291-9.165zm.264 3.57c2.31-.17 3.51 1.469 3.845 5.98.334 4.51-.584 6.333-2.92 6.506-2.255.167-3.512-1.495-3.846-6.005-.334-4.511.64-6.311 2.921-6.48zm24.983-4.954l-5.074.376-1.84 15.254L66.78 4.282l-5.235.388 6.564 18.276 6.336-.469 3.558-19.026zm5.907-.438l-4.967.368 1.382 18.66 4.968-.368-1.383-18.66zm14.74-1.092l-11.84.877 1.382 18.66 11.76-.87-.26-3.518-6.793.503-.314-4.242 5.558-.411-.253-3.41-5.558.411-.294-3.973 6.363-.472.25-3.555zm8.61-1.124c2.9-.214 5.06.517 6.842 1.977l-2.034 2.797c-1.364-.925-2.69-1.34-4.167-1.23-1.45.107-2.214.73-2.138 1.75.08 1.075.805 1.399 3.665 2.105 3.764.882 5.734 2.329 5.985 5.712.26 3.517-2.403 6.198-7.182 6.552-3.41.253-5.837-.81-7.477-2.173l2.242-2.892c1.453 1.026 2.982 1.615 4.78 1.481 1.719-.127 2.599-1.002 2.51-2.21-.092-1.235-.776-1.725-3.411-2.312-4.451-1.047-5.98-2.743-6.184-5.482-.252-3.41 2.569-5.778 6.57-6.075z" transform="translate(-24 19.23)"/>
        <path fill="#FFF" d="M18.622 21.11a.421.421 0 0 0 .1-.092c.015-.02.032-.03.05-.033l-.153.098a2.073 2.073 0 0 1-.205.103 1.095 1.095 0 0 1-.232.133 1.999 1.999 0 0 1-.342.117 6.85 6.85 0 0 1-.337.145c-.143.033-.275.065-.399.096-.123.031-.265.064-.423.1l-.404.042a.689.689 0 0 1-.377.04.862.862 0 0 1-.218-.005l-.188.02a.525.525 0 0 0-.165-.01.516.516 0 0 1-.164-.01.44.44 0 0 0-.137-.013.284.284 0 0 1-.137-.013 1.858 1.858 0 0 1-.225-.058l-.17-.063.03.023c.02.016.068.038.143.068.04.013.066.02.085.017l.113.043c.037.014.083.019.137.013a.992.992 0 0 1 .14.04c.147.02.267.034.357.044.058.012.121.014.193.006a.57.57 0 0 1 .19.008l.403-.042c.073-.009.207-.022.404-.043.16-.036.301-.069.424-.1.143-.033.273-.073.395-.123.07-.025.131-.05.184-.073.052-.023.121-.049.208-.077.14-.05.236-.096.286-.138.05-.024.095-.046.128-.068.052-.024.096-.046.13-.067.05-.043.108-.084.176-.128m-5.77-7.307c.06-.097.132-.204.21-.322.06-.114.128-.23.208-.347a2.2 2.2 0 0 1 .265-.326c.08-.1.152-.198.213-.295.03-.058.079-.126.143-.206l.07-.089a.283.283 0 0 1-.073.063l-.104.064-.096.12c-.111.138-.28.337-.508.596a2.66 2.66 0 0 0-.359.718c-.06.116-.097.192-.112.23a.216.216 0 0 0-.019.082c.019-.001.026-.011.024-.029l.022-.056c.033-.04.048-.07.046-.087.015-.02.023-.038.022-.056.014-.02.031-.04.047-.06m-.323.034c.044-.095.087-.199.13-.312.043-.114.096-.219.157-.316l.425-.615c.176-.219.355-.427.532-.628l.59-.605c.41-.406.835-.768 1.272-1.086.439-.318.835-.596 1.191-.832.188-.11.358-.21.512-.298.136-.087.256-.154.36-.201l.153-.099a.292.292 0 0 0 .13-.04l.081-.008c.019-.002.026-.012.025-.03l-.026.003-.054.005c.001.018-.008.028-.026.03-.033.021-.129.059-.286.111-.122.05-.251.117-.387.205-.154.07-.327.16-.515.27-.205.114-.4.234-.588.362a5.98 5.98 0 0 0-.605.444c-.235.17-.462.348-.679.534-.198.184-.404.369-.62.554-.397.369-.77.788-1.12 1.26a1.9 1.9 0 0 0-.21.322c-.078.116-.149.223-.212.32a1.68 1.68 0 0 0-.156.317 4.626 4.626 0 0 1-.13.312c-.12.23-.184.41-.188.537l-.057.25.011.108a.264.264 0 0 0-.014.11 1.698 1.698 0 0 0 .013.38l-.01-.082a.448.448 0 0 1 .014-.137.667.667 0 0 1 .01-.164.856.856 0 0 1 .004-.217c.013-.039.033-.113.059-.224a1.05 1.05 0 0 1 .08-.254c.046-.095.09-.19.134-.286m12.103.034c.082-.263.235-.37.457-.32.222.048.435.171.637.368.22.194.399.438.54.732.069.156.112.296.125.421a.57.57 0 0 1-.049.305c-.28.79-.679 1.658-1.196 2.6a14.209 14.209 0 0 1-1.945 2.706 11.67 11.67 0 0 1-2.706 2.188c-1.057.637-2.276 1.037-3.655 1.2-.124.031-.238.06-.343.09l-.377.04c-.556.058-1.034 0-1.432-.176a2.89 2.89 0 0 1-1-.71 2.942 2.942 0 0 1-.6-1.052 3.653 3.653 0 0 1-.201-1.148c-.003-.363.03-.657.096-.88.07-.207.145-.351.227-.433.08-.099.147-.151.201-.157.074.01.114.043.119.096.02.543.174.961.458 1.257.286.297.633.497 1.043.598.443.08.915.085 1.415.015.5-.071.948-.2 1.346-.386.431-.209.787-.447 1.069-.711.277-.283.416-.597.416-.941-.008-.254-.19-.442-.549-.568a9.65 9.65 0 0 0-1.369-.346c-.516-.09-1.09-.194-1.718-.308a7.487 7.487 0 0 1-1.766-.495 3.892 3.892 0 0 1-1.352-.973c-.288-.332-.462-.775-.52-1.332l-.004-.026c-.003-.036-.008-.072-.01-.108a3.703 3.703 0 0 1-.017-.162 4.018 4.018 0 0 1 .38-1.807 7.335 7.335 0 0 1 1.052-1.633c.419-.497.895-.964 1.43-1.402a14.521 14.521 0 0 1 1.598-1.092c.547-.311 1.056-.564 1.526-.759.47-.176.867-.28 1.19-.314.304-.033.575.039.81.213.238.193.438.453.599.78.158.291.282.614.374.967.074.355.115.667.126.938.012.289-.036.612-.144.967a7.272 7.272 0 0 1-.38 1.046c-.167.308-.32.578-.457.81-.141.214-.24.323-.293.33-.07.007-.206.02-.403.042a6.91 6.91 0 0 1-.595.036 2.48 2.48 0 0 1-.527-.109c-.168-.054-.253-.154-.25-.3.005-.127.057-.323.155-.587.118-.266.232-.559.345-.88.112-.301.217-.593.315-.875.1-.265.152-.46.156-.587-.008-.072-.134-.068-.38.012-.263.082-.592.235-.985.457-.378.203-.794.465-1.25.785a8.669 8.669 0 0 0-1.255 1c-.38.35-.698.7-.95 1.053-.25.37-.368.718-.351 1.043.004.054.163.11.479.167.315.075.715.16 1.196.255.497.074 1.026.191 1.586.35.577.139 1.124.335 1.64.589.494.22.922.501 1.284.844.345.344.542.758.594 1.243l.057.538c0 .181 0 .343-.003.489 1.068-.873 1.924-1.861 2.57-2.962.664-1.103 1.137-2.114 1.421-3.031"/>
        <path fill="#FFF" d="M33.374 12.707a2.26 2.26 0 0 0-.115.447c-.011.074-.023.138-.035.194.015-.038.036-.094.063-.17.032-.057.06-.133.086-.226a1.6 1.6 0 0 1 .186-.563c.042-.114.075-.227.1-.337a3.1 3.1 0 0 1 .095-.391c.042-.113.085-.236.125-.367.021-.147.053-.278.094-.39.041-.132.074-.252.098-.364.047-.242.105-.474.172-.698a1.92 1.92 0 0 0 .055-.251 3.4 3.4 0 0 1 .033-.193c.028-.076.052-.133.065-.17a1.133 1.133 0 0 1-.092.173.604.604 0 0 0-.06.196 3.666 3.666 0 0 0-.16.56 2.616 2.616 0 0 0-.1.338c-.04.13-.081.261-.12.393a5.632 5.632 0 0 1-.098.364 1.949 1.949 0 0 1-.096.39c-.04.132-.074.253-.097.364-.082.262-.148.496-.199.7m-2.292 2.499a.402.402 0 0 0 .068-.117.308.308 0 0 1 .013-.136c-.014.037-.027.075-.043.113a.393.393 0 0 1-.069.115 2.338 2.338 0 0 1-.185.318c-.058.134-.124.277-.198.43-.182.345-.37.7-.568 1.066-.105.21-.22.412-.345.607-.107.193-.23.395-.37.61-.123.212-.237.415-.344.607-.125.194-.25.38-.377.557-.078.117-.206.293-.38.529a2.643 2.643 0 0 1-.165.235c-.065.079-.12.158-.166.235-.13.14-.315.36-.557.657a.429.429 0 0 1-.097.091.288.288 0 0 0-.076.063c-.034.021-.05.05-.047.086-.003-.036.013-.065.047-.086.015-.02.041-.041.076-.063a.429.429 0 0 0 .097-.091c.069-.044.16-.135.27-.273a2.06 2.06 0 0 0 .316-.36c.132-.123.263-.263.392-.422l.379-.53.374-.583c.106-.192.23-.395.37-.61.236-.35.465-.755.689-1.214.107-.192.204-.384.293-.574.089-.191.171-.363.245-.516.075-.153.14-.295.2-.428.06-.116.112-.22.158-.316m-3.883 4.46a.673.673 0 0 0-.144.178l-.096.119a.421.421 0 0 1-.101.091l.025-.03c-.017.002.006-.018.076-.061a.802.802 0 0 1 .123-.122c.031-.04.072-.09.12-.148a1.2 1.2 0 0 0 .198-.184 1.93 1.93 0 0 0 .194-.212c.065-.08.12-.158.167-.234a.97.97 0 0 0 .19-.265c.29-.339.51-.652.662-.94l.09-.172c.046-.077.086-.137.119-.177.03-.056.052-.104.066-.143a.802.802 0 0 0-.07.117 1.45 1.45 0 0 0-.118.176c-.03.057-.058.114-.09.172a6.97 6.97 0 0 1-.334.443c-.11.157-.228.323-.356.5-.25.37-.491.668-.72.892m1.51.14c.031-.04.046-.069.044-.087l.049-.059.047-.06c-.031.04-.079.1-.144.179-.066.06-.138.141-.22.24a1.856 1.856 0 0 1-.24.297l-.12.149c-.048.06-.097.11-.147.151-.048.06-.105.121-.171.182l-.145.178-.394.395c-.065.062-.189.183-.369.365a1.073 1.073 0 0 0-.228.16.745.745 0 0 1-.174.154.326.326 0 0 1-.125.095.185.185 0 0 0-.13.068 1.865 1.865 0 0 1-.207.103c-.033.04-.066.062-.102.066a.233.233 0 0 0-.104.037 1.974 1.974 0 0 0-.207.104l-.108.011c-.036.004-.062.015-.076.035l-.028.004-.242.025-.08.008a.25.25 0 0 0-.112-.015.194.194 0 0 0-.082-.018.208.208 0 0 1-.085-.019.443.443 0 0 1-.139-.04c-.036.004-.074-.01-.115-.042a.216.216 0 0 0-.082-.019.315.315 0 0 0-.088-.045c-.019-.016-.038-.023-.057-.02l.057.02c.04.015.068.03.088.045.018-.001.046.014.085.046l.114.043a.64.64 0 0 0 .143.066.712.712 0 0 1 .17.064.593.593 0 0 0 .191.006l.242-.025.108-.011c.054-.006.089-.018.104-.038a.634.634 0 0 0 .234-.107.891.891 0 0 0 .21-.076c.048-.042.127-.085.23-.133a.185.185 0 0 1 .13-.068.435.435 0 0 0 .098-.092c.086-.045.161-.099.229-.16.064-.06.132-.113.2-.157l.198-.183.199-.185c.047-.059.104-.119.17-.18.065-.08.13-.15.196-.212.13-.158.321-.396.577-.713.081-.099.16-.199.242-.297.062-.097.117-.176.165-.235m-5.127-1.447a5.089 5.089 0 0 1 .232-.622 4.45 4.45 0 0 1 .098-.364 6.32 6.32 0 0 0 .124-.366c.059-.134.109-.266.15-.397.04-.131.088-.272.145-.424.1-.263.197-.545.292-.846.096-.3.2-.6.313-.903.113-.301.218-.602.313-.902.095-.3.201-.583.319-.85.098-.282.177-.553.241-.814l.223-.73c.066-.225.135-.43.206-.62.07-.188.117-.348.14-.477a.29.29 0 0 0 .037-.168 1.2 1.2 0 0 1 .04-.14c.01-.073.023-.12.04-.14-.042.131-.09.273-.148.423a2.41 2.41 0 0 0-.194.484c-.071.17-.15.37-.235.596-.068.224-.15.469-.25.733-.08.262-.18.526-.297.792a8.96 8.96 0 0 0-.318.85c-.097.3-.202.592-.317.875-.093.319-.196.629-.31.931-.097.282-.193.573-.289.873-.08.263-.16.533-.24.814-.063.26-.128.502-.195.728-.133.466-.229.84-.292 1.118a.449.449 0 0 0-.033.194.232.232 0 0 1-.015.11.428.428 0 0 0-.016.11.24.24 0 0 1 .016-.11l.042-.113.063-.17c.01-.074.03-.148.059-.224.01-.073.028-.157.056-.25m14.678-6.003c.057-.133.182-.155.373-.066.208.087.413.22.613.398.217.177.393.384.528.624a.687.687 0 0 1 .142.312l.006.054a.388.388 0 0 1-.011.164c-.34.742-.784 1.595-1.335 2.56a22.19 22.19 0 0 1-1.859 2.751c-.67.868-1.38 1.615-2.13 2.237-.751.622-1.485.972-2.203 1.047a1.747 1.747 0 0 1-.94-.146 2.447 2.447 0 0 1-.79-.543 3.74 3.74 0 0 1-.513-.734c-.118-.278-.18-.516-.183-.715.001-.164.04-.467.121-.91.081-.444.196-.981.347-1.614a26.82 26.82 0 0 1-1.23 2.006 20.371 20.371 0 0 1-1.263 1.682c-.423.48-.844.877-1.263 1.194-.422.298-.83.468-1.224.51-.215.021-.475-.024-.775-.137a2.908 2.908 0 0 1-.87-.507 2.97 2.97 0 0 1-.717-.875 2.198 2.198 0 0 1-.32-.973c-.01-.09-.01-.181-.001-.273-.015-.307.067-.813.247-1.52.197-.71.45-1.508.755-2.392.27-.88.572-1.8.906-2.76.335-.96.648-1.854.943-2.682.275-.826.508-1.54.699-2.14.19-.6.286-.983.288-1.145.003-.145.058-.224.165-.235.09-.01.203.033.34.127.173.09.349.217.529.38.18.163.344.344.493.547.144.165.27.333.378.503.107.152.166.273.174.363.013.107-.084.407-.285.9-.182.508-.407 1.13-.675 1.865-.265.735-.555 1.527-.865 2.375-.31.849-.595 1.658-.86 2.43-.262.77-.482 1.446-.656 2.027-.173.598-.258.997-.255 1.195.448-.047.963-.41 1.544-1.087.581-.678 1.174-1.51 1.778-2.498a46.938 46.938 0 0 0 1.807-3.235 152.26 152.26 0 0 0 1.594-3.213l1.238-2.442c.33-.651.54-.982.631-.99a.767.767 0 0 1 .619.206c.18.163.33.365.444.606.134.24.232.474.292.703.06.23.098.416.113.56-.008.092-.083.407-.227.948-.141.541-.328 1.194-.554 1.962-.209.765-.44 1.588-.693 2.465-.234.877-.447 1.688-.641 2.433a23.158 23.158 0 0 0-.459 1.844c-.112.483-.134.72-.061.713.447-.047.914-.259 1.401-.637a9.837 9.837 0 0 0 1.477-1.46c.478-.63.965-1.353 1.46-2.166.493-.814.966-1.678 1.413-2.596"/>
        <path fill="#FFF" d="M45.913 13.782c.02-.147.05-.305.087-.471l.063-.443c.02-.146.032-.293.035-.438.003-.145.015-.292.036-.44l.014-.38a15.073 15.073 0 0 0 .03-1.01c0-.182 0-.345.003-.49l-.02-.188c.012-.057.017-.101.012-.137a3.202 3.202 0 0 0-.01-.108c-.01.073-.023.22-.037.438a12.59 12.59 0 0 0-.098 1.125c-.005.128-.011.247-.017.356a2.756 2.756 0 0 1-.04.385l-.064.441a1.895 1.895 0 0 1-.065.415l-.063.442c-.04.132-.069.28-.088.445l-.063.441c-.04.15-.086.3-.143.45-.006.11-.016.192-.029.248a.933.933 0 0 1-.057.223l-.085.227a1.07 1.07 0 0 1-.059.224l-.084.226c-.013.055-.032.13-.059.224a.408.408 0 0 0-.09.173l-.086.226a2.15 2.15 0 0 0-.175.399c-.042.113-.1.237-.178.373l-.091.172-.09.172a.856.856 0 0 0-.093.146.85.85 0 0 1-.094.146c-.081.1-.144.188-.19.265-.063.08-.128.159-.193.238a.837.837 0 0 1-.138.231c-.05.043-.106.103-.17.182l-.265.327c-.002-.018.02-.048.072-.09l.096-.119a.678.678 0 0 0 .152-.096.78.78 0 0 0 .148-.152.412.412 0 0 1 .098-.092l.072-.09c.063-.096.126-.184.19-.264.082-.08.165-.17.244-.27a.952.952 0 0 0 .093-.146.494.494 0 0 1 .12-.149c.03-.057.062-.114.09-.172.032-.058.062-.115.092-.173.156-.234.284-.492.38-.775a.734.734 0 0 0 .116-.201 1.94 1.94 0 0 0 .087-.2 1.07 1.07 0 0 0 .059-.224l.084-.227c.061-.115.108-.265.144-.45.027-.075.046-.15.057-.223.012-.056.032-.13.059-.223.036-.167.075-.326.113-.475.02-.147.05-.295.088-.444M44.485 7.16c-.052.041-.109.094-.175.154a2.09 2.09 0 0 1-.177.128c-.066.06-.124.122-.171.18a1.93 1.93 0 0 0-.172.182 1.604 1.604 0 0 1-.14.206 1.82 1.82 0 0 1-.142.204 2.064 2.064 0 0 1-.142.206 9.34 9.34 0 0 0-.091.172c-.096.12-.15.206-.163.262.003.037-.01.074-.043.113.018-.002.042-.031.073-.089a.316.316 0 0 0 .097-.118c.031-.04.062-.09.093-.146.08-.1.158-.217.234-.351.096-.12.203-.239.317-.36a.986.986 0 0 1 .34-.389l.144-.178a.4.4 0 0 0 .075-.062c.015-.02.041-.041.074-.063a.973.973 0 0 0 .226-.187c.017-.002.033-.013.05-.033l.027-.003c.019-.001.026-.011.024-.028-.018.001-.052.023-.101.064-.104.047-.19.093-.257.136m.292 10.547l.048-.06c-.003-.017.005-.036.021-.056.019-.002.026-.012.025-.029-.065.079-.202.247-.41.505l-.187.291c-.082.082-.164.171-.243.27a3.168 3.168 0 0 0-.268.301 3.09 3.09 0 0 1-.27.273 2.455 2.455 0 0 0-.3.249 1.85 1.85 0 0 0-.177.127l-.15.125c-.137.087-.23.151-.279.192l-.156.07a1.205 1.205 0 0 0-.13.07 7.21 7.21 0 0 1-.466.21.302.302 0 0 1-.132.042c-.018.002-.025.012-.024.03l.027-.003a.309.309 0 0 0 .133-.041c.069-.026.148-.052.236-.08.087-.026.174-.063.26-.109.034-.021.077-.044.129-.067a.295.295 0 0 0 .156-.071c.07-.025.172-.082.308-.169.153-.087.263-.172.327-.251.086-.045.196-.13.327-.252.18-.183.35-.381.507-.597a4.139 4.139 0 0 0 .571-.795c.047-.058.087-.118.117-.175m-1.15-9.124l-.385.475a5.02 5.02 0 0 0-.494.733l-.283.41a5.953 5.953 0 0 1-.251.461c-.092.155-.177.3-.254.435a5.81 5.81 0 0 0-.255.407c-.072.171-.149.315-.227.432a2.695 2.695 0 0 1-.18.345 2.072 2.072 0 0 0-.292.6.724.724 0 0 0-.087.201 4.56 4.56 0 0 1 .114-.203c.029-.075.066-.15.113-.228.043-.096.114-.204.21-.322.06-.115.13-.24.206-.375.078-.117.155-.252.23-.404.075-.136.161-.272.256-.409.076-.134.16-.28.254-.434.091-.155.175-.309.249-.462.094-.136.18-.272.257-.407a5.63 5.63 0 0 1 .233-.377c.078-.118.166-.227.264-.328.078-.116.14-.223.184-.319.044-.094.09-.173.139-.231a.668.668 0 0 1 .144-.179l-.144.179m-2.802 2.578c-.058.133-.11.256-.152.37-.045.095-.08.189-.105.283a.91.91 0 0 0-.084.253c-.002-.018.006-.036.023-.056l.09-.174c.028-.075.074-.17.134-.285.041-.114.091-.237.151-.37.076-.135.16-.27.256-.407.076-.135.159-.288.25-.461a5.37 5.37 0 0 1 .276-.492c.091-.155.194-.31.304-.467.2-.33.412-.65.631-.964.187-.309.383-.584.594-.824.08-.116.148-.223.211-.32.084-.082.148-.152.196-.212a.433.433 0 0 0 .07-.115c-.002-.019.004-.037.02-.057l.048-.06-.048.06-.12.148c-.048.06-.112.13-.196.212-.08.098-.159.206-.236.324a2.028 2.028 0 0 0-.318.359c-.093.137-.195.283-.306.44l-.331.47a7.72 7.72 0 0 1-.329.497l-.278.464c-.108.174-.2.338-.275.491-.09.173-.173.326-.249.462-.075.152-.15.296-.227.431m-.769 5.356c-.005.309.005.652.027 1.03.01.109.02.207.03.297.031.287.077.553.138.8.09.336.229.612.415.827.183.199.42.283.706.253a2.655 2.655 0 0 0 1.605-.767 6.75 6.75 0 0 0 1.266-1.656c.345-.689.635-1.454.875-2.294.22-.84.386-1.673.498-2.5.146-.85.233-1.665.26-2.448.028-.764.012-1.433-.048-2.007-.4.169-.864.59-1.39 1.26-.485.56-1.086 1.402-1.801 2.53-.715 1.125-1.576 2.685-2.581 4.675m-.835-6.656c.022-.129.044-.249.07-.36a.907.907 0 0 1 .056-.251.341.341 0 0 0 .066-.143l-.003-.027-.003-.027-.027.003c-.047.24-.11.51-.186.808-.063.261-.151.56-.26.897-.092.336-.196.728-.312 1.176-.235.858-.514 1.83-.835 2.916-.303 1.083-.611 2.203-.926 3.36l-1.784 6.305a94.212 94.212 0 0 1-.817 2.833c.001.018.011.026.03.023.011-.054.033-.12.06-.196l.085-.227c.027-.093.06-.205.101-.336.08-.28.174-.58.287-.9.128-.34.25-.734.365-1.181.136-.413.289-.873.452-1.38.15-.487.294-.992.44-1.514.16-.543.32-1.095.478-1.656.177-.562.344-1.132.5-1.711.156-.579.306-1.146.446-1.706.16-.56.31-1.11.453-1.651.157-.56.302-1.083.433-1.568.13-.485.244-.941.345-1.369.065-.243.116-.456.15-.642.053-.186.096-.372.133-.557.052-.186.088-.353.11-.501.038-.15.069-.288.093-.418m-4.685 17.786a10.3 10.3 0 0 1 .213-.81c.083-.263.148-.505.195-.728.05-.222.109-.446.177-.67-.016.038-.037.094-.065.17-.03.057-.058.132-.086.225l-.078.281c-.025.11-.058.224-.1.337a1.89 1.89 0 0 0-.098.363 3.623 3.623 0 0 0-.149.396 3.122 3.122 0 0 0-.12.421c-.02.147-.051.286-.092.419a2.143 2.143 0 0 0-.098.363c-.044.258-.102.5-.167.724a2.67 2.67 0 0 0-.112.501l-.03.222c.012-.057.032-.121.06-.197a.616.616 0 0 0 .062-.197c.025-.093.051-.196.076-.307.026-.094.06-.197.104-.31.042-.113.073-.243.095-.39l.121-.395a4.97 4.97 0 0 1 .092-.418m16.74-16.66c.1-.264.267-.381.506-.352.224.05.445.18.667.392.238.193.427.436.566.729.07.138.109.261.121.368a.758.758 0 0 1-.045.358c-.314.795-.749 1.665-1.301 2.612a13.24 13.24 0 0 1-2.05 2.744 12.682 12.682 0 0 1-2.89 2.262c-1.112.642-2.392 1.049-3.843 1.22l-.053.005-.027.003-.054.006a3.432 3.432 0 0 1-1.239-.142 3.977 3.977 0 0 1-1.063-.541 4.457 4.457 0 0 1-.819-.811c-.25-.301-.462-.604-.64-.913-.39 1.456-.764 2.91-1.12 4.36-.373 1.436-.7 2.739-.974 3.91a96.494 96.494 0 0 0-.702 2.901c-.172.78-.25 1.25-.232 1.412.01.089-.03.139-.121.148a.887.887 0 0 1-.275-.025 5.294 5.294 0 0 1-.928-.31c-.34-.127-.667-.302-.98-.523-.294-.205-.449-.388-.466-.55-.01-.089.076-.487.256-1.195.198-.691.448-1.588.75-2.69.298-1.118.648-2.37 1.047-3.754.381-1.363.787-2.774 1.214-4.233a543.58 543.58 0 0 0 1.18-4.284c.397-1.402.743-2.67 1.04-3.808.3-1.12.537-2.06.711-2.82.194-.747.282-1.19.267-1.335-.045-.429.03-.655.229-.676l.026-.003c.197-.02.435.072.71.28.275.206.537.46.787.76.251.317.388.584.41.799.01.09-.02.32-.091.69-.07.37-.175.843-.312 1.42.666-1.067 1.308-1.96 1.921-2.677.63-.719 1.18-1.103 1.646-1.152.251-.027.51.028.779.163.27.152.533.415.788.786.256.355.487.838.698 1.45.192.633.336 1.397.43 2.293.051.485.06 1.01.03 1.575-.03.583-.092 1.188-.19 1.815a16.542 16.542 0 0 1-.402 1.864 17.202 17.202 0 0 1-.596 1.83c.624-.446 1.18-.93 1.67-1.454.502-.542.953-1.088 1.35-1.637.372-.583.694-1.152.962-1.706.267-.572.484-1.094.652-1.564"/>
        <path fill="#FFF" d="M58.493 17.3c.084-.064.159-.126.225-.188.066-.06.125-.112.175-.153-.05.041-.118.084-.205.13-.066.061-.15.125-.25.19-.087.045-.18.109-.28.192-.12.068-.24.125-.362.174a1.008 1.008 0 0 1-.208.104c-.05.023-.11.056-.178.1-.086.045-.156.079-.208.103-.07.025-.148.052-.237.08a1.028 1.028 0 0 1-.206.102c-.052.024-.11.058-.18.102a.886.886 0 0 1-.212.049 8.26 8.26 0 0 1-.236.079c-.176.055-.299.095-.37.12l-.187.02a.525.525 0 0 1-.158.044c-.07.025-.177.045-.32.06a.982.982 0 0 1-.24.053l-.08.008a.207.207 0 0 1-.079.036l-.052.005.215-.022.242-.026c.142-.015.25-.035.32-.06.142-.016.258-.036.345-.064.09-.01.224-.042.399-.096a1.74 1.74 0 0 0 .21-.076 1.26 1.26 0 0 0 .24-.054c.07-.025.13-.05.182-.073a.672.672 0 0 0 .236-.079.356.356 0 0 1 .206-.103c.052-.024.121-.058.207-.104l.387-.204c.118-.084.236-.16.356-.227.101-.065.204-.139.303-.223m-.653-8.796a.08.08 0 0 0-.02.057c-.016.02-.023.048-.02.083a.173.173 0 0 1-.018.084 1.755 1.755 0 0 1-.106.284 1.584 1.584 0 0 1-.154.341c-.028.077-.088.191-.182.346l-.226.432-.144.179a1.802 1.802 0 0 1-.142.205.954.954 0 0 0-.168.208 1.404 1.404 0 0 1-.202.157c-.031.04-.088.1-.17.181a.404.404 0 0 1-.1.092c-.036.004-.07.025-.1.065a1.753 1.753 0 0 1-.406.287.996.996 0 0 1-.233.106c-.07.026-.14.06-.208.103-.137.07-.27.111-.394.124l-.314.114-.296.031a.61.61 0 0 1-.187.047l-.054.006.244-.026.294-.03a.52.52 0 0 0 .16-.045l.189-.02c.05-.023.112-.048.181-.073a.872.872 0 0 0 .212-.05c.068-.043.137-.078.208-.103a1.04 1.04 0 0 0 .234-.106c.086-.045.153-.089.202-.131.068-.042.147-.087.232-.132a.429.429 0 0 1 .098-.092.448.448 0 0 0 .1-.093c.05-.04.107-.1.17-.18.104-.048.18-.1.228-.16.047-.078.104-.146.169-.208.047-.077.093-.146.143-.206a1.82 1.82 0 0 0 .14-.204.705.705 0 0 1 .115-.203c.046-.077.084-.154.112-.229.027-.076.057-.142.088-.2a.696.696 0 0 1 .063-.17.868.868 0 0 0 .128-.34 3.31 3.31 0 0 1 .082-.253c.01-.073.029-.166.052-.278m-3.707 3.273c.753-.079 1.371-.317 1.855-.712a4.093 4.093 0 0 0 1.138-1.343 7.051 7.051 0 0 0 .615-1.642c.123-.574.214-1.083.276-1.525a.514.514 0 0 1-.164-.01l-.163.018c-.357.037-.73.204-1.116.497-.386.295-.761.688-1.127 1.18-.367.473-.709 1.017-1.024 1.63a12.738 12.738 0 0 0-.837 1.883c.132.04.314.049.547.024m-1.58-3.125a1.45 1.45 0 0 0-.066.143l-.043.114a.181.181 0 0 1 .073-.09c.014-.038.035-.085.067-.142.08-.1.166-.226.258-.381.112-.156.23-.314.36-.473.06-.096.124-.186.188-.264l.217-.269.24-.297c.101-.083.19-.182.268-.3.08-.098.17-.19.27-.273l.295-.303c.099-.1.206-.194.324-.278.12-.067.23-.142.331-.226.232-.187.48-.331.742-.43.206-.113.45-.203.734-.269l.376-.039c.127-.013.253-.008.382.015.036-.004.065.002.084.018l.081-.008c.038.013.065.019.083.017a.203.203 0 0 1 .083.019.19.19 0 0 0 .084.018.212.212 0 0 1 .083.02.18.18 0 0 0 .14.038c.188.054.37.143.546.27.075.028.142.067.203.114.058.049.117.087.174.117l.118.097a.182.182 0 0 0 .09.072c.04.031.068.048.086.045a.308.308 0 0 1-.061-.074c-.08-.065-.15-.13-.211-.196l-.148-.12a.545.545 0 0 1-.207-.141 3.04 3.04 0 0 1-.257-.136 1.057 1.057 0 0 0-.289-.161.428.428 0 0 1-.168-.036.597.597 0 0 0-.143-.067 1.16 1.16 0 0 1-.194-.034.222.222 0 0 0-.084-.019.186.186 0 0 1-.082-.018 3.813 3.813 0 0 0-.626.012l-.187.019c-.123.03-.256.063-.397.096a2.562 2.562 0 0 0-.42.153 3.43 3.43 0 0 0-.719.402 2.89 2.89 0 0 0-.378.284c-.1.084-.208.176-.323.28-.1.1-.197.2-.296.302-.08.1-.169.199-.268.3a5.31 5.31 0 0 0-.478.621l-.404.56c-.126.176-.234.35-.326.523a3.449 3.449 0 0 1-.204.375m-.52 1.524c.046-.078.083-.154.111-.23l.14-.232c.029-.076.065-.152.11-.23a.629.629 0 0 0 .114-.228l.207-.35c.08-.116.158-.224.238-.323a.856.856 0 0 0 .139-.232c.031-.04.047-.068.045-.086l.049-.06c-.002-.018.013-.038.047-.058-.017.001-.034.02-.047.058l-.049.06c.002.018-.014.046-.045.086l-.168.209-.242.297c-.029.056-.07.116-.117.175a.734.734 0 0 0-.115.202 1.833 1.833 0 0 1-.14.206 1.526 1.526 0 0 1-.112.229l-.14.232a1.526 1.526 0 0 1-.11.23c-.075.152-.159.324-.245.515a3.929 3.929 0 0 1-.084.253c-.028.074-.055.16-.082.253a2.73 2.73 0 0 1-.082.253 3.11 3.11 0 0 0-.137.505c-.01.073-.03.148-.059.223-.016.184-.037.33-.061.441a4.424 4.424 0 0 0-.04.386c-.009.109-.007.209.002.298a.234.234 0 0 0-.015.11.32.32 0 0 0 .04.132c0-.018-.004-.044-.007-.08a.493.493 0 0 1 .01-.164.302.302 0 0 0 .011-.138c-.004-.054 0-.1.014-.137.009-.091.02-.23.039-.412a.287.287 0 0 0 .036-.167c.01-.073.028-.157.055-.25.029-.076.049-.15.059-.225.01-.073.028-.156.055-.25.026-.094.053-.177.082-.254.028-.074.055-.16.082-.253.028-.075.065-.151.112-.23.028-.074.055-.159.082-.253a1.89 1.89 0 0 1 .105-.282c.047-.077.084-.155.113-.23m11-.367c.227.085.443.234.646.449.188.233.298.503.331.808.018.18-.055.513-.222 1.002-.182.508-.44 1.071-.774 1.686a19.328 19.328 0 0 1-1.206 1.976 13.052 13.052 0 0 1-1.645 1.94 10.08 10.08 0 0 1-1.96 1.538c-.717.42-1.47.672-2.26.754-.537.057-1.093-.057-1.667-.341a7.21 7.21 0 0 1-1.673-1.183 7.71 7.71 0 0 1-1.269-1.716 5.225 5.225 0 0 1-.643-1.972c-.066-.628-.028-1.312.112-2.052.138-.757.348-1.504.633-2.241a17.47 17.47 0 0 1 1.049-2.178c.416-.714.857-1.35 1.324-1.906a7.747 7.747 0 0 1 1.489-1.352c.524-.363 1.036-.572 1.538-.624.664-.07 1.21.027 1.635.29.425.245.757.554.996.928.252.337.404.656.453.959.12.604.014 1.503-.314 2.698a6.688 6.688 0 0 1-.919 1.864 5.859 5.859 0 0 1-1.4 1.425 3.732 3.732 0 0 1-1.828.709c-.468.05-.88.01-1.237-.116a3.475 3.475 0 0 1-.95-.497c-.286 1.063-.386 2.025-.294 2.886.031.305.082.617.151.935.071.32.164.609.283.869.116.241.274.441.472.602.195.143.428.2.697.172a5.54 5.54 0 0 0 2.235-.724c.684-.4 1.296-.871 1.837-1.417a10.863 10.863 0 0 0 1.44-1.81c.406-.623.752-1.222 1.036-1.795.3-.594.528-1.098.683-1.514.157-.415.263-.689.321-.822.153-.288.406-.378.761-.27.037.014.084.027.14.04"/>
        <path fill="#FFF" d="M65.966 12.326a2.043 2.043 0 0 1-.01-.08.235.235 0 0 0 .016-.11c-.002-.018.006-.037.02-.057-.014.02-.022.039-.02.057-.016.02-.022.047-.019.083a.22.22 0 0 1-.017.084 4.954 4.954 0 0 0-.077.307c-.027.093-.051.205-.073.334-.023.13-.055.268-.093.417-.022.13-.043.285-.06.47-.01.072-.03.147-.058.222a15.82 15.82 0 0 1-.025.275l-.03.493c-.007.11-.007.2.001.272-.008.091-.008.182.002.272-.01.09 0 .172.025.241.008.072.008.154-.002.245.027.089.047.177.056.266a.912.912 0 0 0 .05.213c.02.033.034.069.038.105.003.036.016.07.038.105.006.053.03.113.074.182.004.054.03.114.074.182.039.032.06.058.061.076.018-.002.038.014.06.047.023.053.047.105.071.156.04.033.07.066.092.099.019.016.06.048.118.097.002.017.014.034.033.05l.027-.003-.027.004-.033-.051a.349.349 0 0 1-.095-.126.644.644 0 0 1-.162-.255c-.02-.016-.031-.033-.033-.05a.179.179 0 0 0-.036-.078c-.06-.067-.093-.118-.096-.154a.245.245 0 0 1-.039-.104.246.246 0 0 0-.037-.106l-.013-.107c-.019-.016-.031-.043-.034-.078a.886.886 0 0 1-.05-.212c-.009-.09-.02-.179-.028-.27-.01-.089-.019-.17-.025-.241a1.238 1.238 0 0 1 0-.245 1.074 1.074 0 0 1 .002-.244 1.735 1.735 0 0 1-.002-.272c.01-.092.01-.174.002-.246a.525.525 0 0 1 .053-.278c.008-.09.008-.172.001-.243.01-.074.03-.149.059-.224.016-.183.036-.34.058-.469.021-.147.043-.285.065-.414.022-.311.054-.523.098-.637m-.606 2.267a.222.222 0 0 1-.018.083 1.89 1.89 0 0 0-.059.224c-.004.127-.01.246-.016.356-.006.127-.009.263-.012.409.035.322.087.57.16.744a.64.64 0 0 0 .106.234c.022.033.033.06.036.077-.021-.016-.031-.042-.036-.077-.003-.037-.008-.072-.01-.108a.289.289 0 0 1-.042-.132 2.213 2.213 0 0 1-.064-.347l-.042-.403.013-.382a1.618 1.618 0 0 1-.005-.325c-.017-.144-.017-.234-.001-.273-.004-.017-.005-.044-.01-.08m-1.095-9.647a.68.68 0 0 1 .063-.17 1.66 1.66 0 0 0 .062-.196.656.656 0 0 0 .063-.17c.013-.057.023-.12.034-.194a.287.287 0 0 1 .046-.086.268.268 0 0 1 .014-.111.274.274 0 0 0 .041-.14c.025-.094.045-.168.058-.224a2.043 2.043 0 0 1-.009-.08l-.002-.028a.344.344 0 0 1-.045.087.234.234 0 0 1-.017.11 2.83 2.83 0 0 1-.042.113l-.074.335c-.04.131-.082.253-.124.366-.041.132-.083.253-.125.367-.04.131-.085.235-.13.312-.025.113-.05.206-.08.28l-.023.03.027-.002c-.003-.019.004-.037.021-.057a.388.388 0 0 1 .069-.116c-.004-.036.01-.073.042-.113.029-.076.072-.18.13-.313m-1.073.14c.126.15.32.284.585.4.304-.92.555-1.716.757-2.39a.48.48 0 0 0 .031-.221.593.593 0 0 0-.201-.36c-.194-.124-.38-.177-.561-.159-.287.031-.554.25-.8.656-.192.437-.268.826-.232 1.167.036.34.176.643.421.907m-1.618-1.95a.759.759 0 0 1-.038.166 3.387 3.387 0 0 1-.042.114l.009.08.003.027c.015-.02.021-.057.015-.11a.16.16 0 0 1 .042-.113.193.193 0 0 1 .04-.14.354.354 0 0 1 .067-.144.607.607 0 0 1 .061-.196c.027-.076.049-.141.06-.197.014-.057.033-.121.062-.197a.722.722 0 0 0 .114-.202.646.646 0 0 1 .06-.198.63.63 0 0 0 .065-.169l.09-.172a.919.919 0 0 1 .113-.23.112.112 0 0 0 .018-.083l-.003-.027c-.013.038-.029.075-.043.113-.034.022-.08.09-.142.205a3.083 3.083 0 0 1-.153.343c-.06.132-.118.266-.176.4a6.693 6.693 0 0 0-.125.365l-.097.365m-.07-.402l-.023.03.006.054.003.027.041-.114a.264.264 0 0 1 .04-.14.56.56 0 0 0 .067-.143.624.624 0 0 0 .06-.196 2.22 2.22 0 0 1 .087-.2.348.348 0 0 1 .068-.142.327.327 0 0 0 .045-.087.273.273 0 0 1 .043-.113c.034-.022.056-.06.068-.117.015-.037.053-.113.113-.228a.7.7 0 0 0 .114-.203.685.685 0 0 0 .115-.202.465.465 0 0 0 .12-.149c.05-.06.09-.1.123-.122-.003-.036.013-.055.05-.059-.003-.018.004-.037.02-.057a.372.372 0 0 0 .076-.062l.027-.002-.03-.025a.94.94 0 0 1-.1.092l-.102.066a.877.877 0 0 0-.123.12c-.017.02-.065.071-.147.152a.333.333 0 0 1-.075.063.81.81 0 0 1-.07.116 1.833 1.833 0 0 1-.141.205 1.462 1.462 0 0 1-.112.23 1.254 1.254 0 0 1-.112.228c-.028.076-.064.161-.11.257-.04.131-.07.27-.09.417-.04.15-.057.251-.05.304m11.04 6.21c.088-.191.25-.29.485-.296.255.01.498.083.731.222.23.121.428.29.596.508a.775.775 0 0 1 .178.39.55.55 0 0 1-.028.248c-.088.207-.241.56-.462 1.054-.22.494-.514 1.05-.883 1.67a22.32 22.32 0 0 1-1.181 1.973 16.168 16.168 0 0 1-1.352 1.882 10.868 10.868 0 0 1-1.45 1.458c-.466.393-.924.614-1.373.661-.107.01-.31-.03-.61-.126a3.126 3.126 0 0 1-.925-.502 3.639 3.639 0 0 1-.883-.913c-.255-.353-.411-.8-.467-1.337-.074-.7-.009-1.459.196-2.278.222-.82.464-1.616.728-2.388.28-.79.54-1.507.78-2.148.222-.64.316-1.13.28-1.47-.007-.072-.145-.167-.41-.284a21.042 21.042 0 0 0-.9-.286c-.254.68-.546 1.444-.874 2.294-.31.849-.602 1.604-.876 2.267-.1.283-.25.39-.457.32-.205-.069-.42-.209-.642-.421a3.065 3.065 0 0 1-.513-.735 1.394 1.394 0 0 1-.123-.395.494.494 0 0 1 .05-.305c.194-.581.4-1.192.623-1.832.203-.656.41-1.276.62-1.86a4.599 4.599 0 0 1-1.583-.84c-.341-.49-.536-.968-.586-1.434-.004-.036-.006-.063-.009-.08.003-2.394.63-3.656 1.886-3.788.537-.057 1.179.093 1.924.45 1.55.961 1.979 2.439 1.282 4.433-.134.45-.245.78-.331.987.317.093.665.211 1.043.353.377.141.72.305 1.03.49.343.164.618.36.824.593.222.23.35.48.377.749.02.18-.036.512-.167.997a20.418 20.418 0 0 1-.505 1.657c-.17.617-.366 1.262-.586 1.938-.22.676-.4 1.283-.542 1.825-.141.558-.237 1.012-.292 1.362-.035.348.028.514.189.497.304-.032.64-.212 1.003-.54a9.909 9.909 0 0 0 1.092-1.257 18.58 18.58 0 0 0 1.05-1.66c.335-.597.646-1.174.932-1.73.269-.554.508-1.041.717-1.462.189-.437.321-.74.393-.912"/>
    </g>
</svg>
