<svg xmlns="http://www.w3.org/2000/svg" width="72" height="36" viewBox="0 0 72 36">
    <defs>
        <linearGradient id="a" x1="6.033%" x2="97.117%" y1="53.897%" y2="45.1%">
            <stop offset="0%" stop-color="#FFCE1F"/>
            <stop offset="100%" stop-color="#F7B436"/>
        </linearGradient>
    </defs>
    <g fill="none" fill-rule="evenodd">
        <path d="M-18.542 38.807l97.425-10.646"/>
        <path fill="url(#a)" fill-rule="nonzero" d="M32.54 4.828l-4.865.36-1.05 9.84-2.677-9.564-4.844.359.01 14.715 3.833-.284-.235-5.466c-.085-2.006-.252-3.687-.612-5.968l2.862 9.76 3.685-.272L29.913 8.24c-.019 2.034.171 4.031.38 5.985l.593 5.44 3.833-.284-2.18-14.554zm8.837-1.036c-4.254.315-6.48 3.423-6.127 8.182.36 4.865 3.014 7.527 7.267 7.212 4.254-.315 6.5-3.446 6.147-8.205-.36-4.865-3.033-7.504-7.287-7.189zm.208 2.8c1.81-.133 2.753 1.152 3.015 4.69.262 3.538-.458 4.967-2.29 5.103-1.769.131-2.755-1.172-3.017-4.71-.262-3.538.502-4.95 2.292-5.082zm19.594-3.886l-3.98.295-1.443 11.965-3.38-11.608-4.106.305 5.149 14.334 4.97-.368 2.79-14.923zm4.633-.343l-3.896.289L63 17.287 66.896 17 65.812 2.363zm11.561-.856l-9.287.688L69.17 16.83l9.224-.683-.204-2.759-5.328.395-.247-3.327 4.36-.323-.199-2.674-4.359.322-.23-3.116 4.99-.37.196-2.788zm6.753-.882c2.274-.168 3.968.405 5.366 1.551l-1.595 2.193c-1.07-.725-2.11-1.05-3.269-.965-1.137.085-1.736.574-1.677 1.374.063.842.632 1.096 2.875 1.65 2.952.692 4.497 1.827 4.694 4.48.204 2.759-1.885 4.862-5.633 5.14-2.674.197-4.578-.636-5.864-1.705l1.758-2.269c1.14.805 2.339 1.267 3.75 1.162 1.347-.1 2.038-.786 1.967-1.733-.071-.97-.608-1.353-2.675-1.814-3.49-.821-4.69-2.15-4.85-4.299-.198-2.674 2.015-4.532 5.153-4.765z" transform="translate(-19 15.083)"/>
        <path fill="#FFF" d="M14.429 16.557a.33.33 0 0 0 .078-.073c.013-.015.026-.023.04-.025l-.12.077c-.028.017-.08.044-.161.08a.859.859 0 0 1-.182.105c-.082.037-.17.067-.268.092-.08.037-.17.075-.265.113l-.312.075c-.097.025-.208.051-.332.079a56.44 56.44 0 0 0-.317.033.54.54 0 0 1-.296.03.676.676 0 0 1-.17-.003l-.148.016a.412.412 0 0 0-.13-.008.405.405 0 0 1-.128-.008.345.345 0 0 0-.108-.01.223.223 0 0 1-.107-.01 1.458 1.458 0 0 1-.177-.046l-.133-.049.024.018c.015.013.053.03.112.053.03.011.051.016.066.014l.09.033a.223.223 0 0 0 .107.01c.043.01.08.02.11.032.115.016.209.027.28.034.045.01.094.012.15.006a.448.448 0 0 1 .15.006l.316-.033.317-.034c.125-.028.236-.054.332-.078.112-.026.214-.058.31-.097.055-.02.103-.039.144-.057.04-.019.095-.039.163-.06a.808.808 0 0 0 .225-.109.868.868 0 0 0 .1-.053.803.803 0 0 0 .101-.053c.04-.033.086-.066.139-.1m-4.526-5.731c.048-.076.104-.16.165-.252.047-.09.101-.181.164-.273.061-.092.13-.177.207-.256.062-.078.12-.155.167-.23.024-.046.062-.1.113-.163l.055-.069a.222.222 0 0 1-.058.049l-.081.05a16.214 16.214 0 0 1-.474.562c-.136.2-.229.387-.282.563-.047.09-.076.15-.088.18a.17.17 0 0 0-.014.065c.014-.001.02-.009.019-.023l.016-.044c.026-.031.038-.054.037-.068.012-.015.018-.03.017-.044.011-.016.024-.031.037-.047m-.253.026a3.4 3.4 0 0 0 .1-.245c.035-.088.076-.17.125-.247l.333-.483c.138-.17.278-.334.417-.492.155-.158.309-.316.462-.475.322-.318.655-.602.998-.85.345-.25.655-.469.935-.654l.401-.234c.107-.068.2-.12.282-.157l.12-.078a.229.229 0 0 0 .103-.031l.063-.007c.015-.001.02-.01.02-.023l-.02.002-.043.005c.001.013-.006.021-.02.023a1.362 1.362 0 0 1-.225.087 1.815 1.815 0 0 0-.303.16 4.41 4.41 0 0 0-.404.213 5.468 5.468 0 0 0-.461.283 4.69 4.69 0 0 0-.475.349 7.928 7.928 0 0 0-.532.418c-.156.145-.317.29-.487.435a7.149 7.149 0 0 0-.878.988 1.49 1.49 0 0 0-.165.253c-.061.09-.117.175-.166.251-.048.076-.09.159-.123.248-.034.089-.067.17-.102.245-.094.18-.144.321-.147.421l-.044.196.008.085a.207.207 0 0 0-.011.086 1.332 1.332 0 0 0 .01.298c-.003-.014-.004-.035-.007-.064a.351.351 0 0 1 .01-.107.523.523 0 0 1 .008-.13.671.671 0 0 1 .003-.17c.01-.03.026-.088.046-.175a.823.823 0 0 1 .064-.2l.105-.224m9.492.027c.064-.206.184-.29.359-.251.174.038.34.135.5.289.172.152.312.343.423.574.053.122.088.232.097.33a.448.448 0 0 1-.038.24c-.22.62-.532 1.3-.938 2.038-.405.74-.914 1.447-1.526 2.123a9.153 9.153 0 0 1-2.122 1.716c-.83.5-1.785.813-2.866.941a13.39 13.39 0 0 0-.27.07l-.295.032c-.436.046-.811 0-1.123-.138a2.267 2.267 0 0 1-.785-.557 2.308 2.308 0 0 1-.47-.825 2.865 2.865 0 0 1-.158-.9 2.426 2.426 0 0 1 .075-.69c.056-.163.115-.276.178-.34.064-.078.116-.119.159-.123.057.008.089.033.092.075.017.426.137.754.36.986.224.233.496.39.818.47a3.48 3.48 0 0 0 1.11.01 3.688 3.688 0 0 0 1.055-.302c.338-.164.618-.35.838-.558.218-.222.327-.468.327-.738-.006-.199-.15-.347-.43-.445a7.568 7.568 0 0 0-1.074-.271c-.405-.071-.856-.152-1.348-.242a5.873 5.873 0 0 1-1.385-.388 3.053 3.053 0 0 1-1.06-.763c-.227-.26-.363-.609-.409-1.045l-.002-.02-.009-.085a2.904 2.904 0 0 1-.012-.127c-.011-.497.089-.969.298-1.417.208-.45.484-.876.825-1.282.328-.39.702-.756 1.121-1.099.42-.328.838-.614 1.254-.857.429-.243.828-.442 1.196-.595.369-.138.68-.22.933-.246a.876.876 0 0 1 .636.167c.187.151.344.355.47.612.123.228.221.482.293.758.058.279.09.524.099.736.01.226-.028.48-.113.758a5.704 5.704 0 0 1-.297.82 20.55 20.55 0 0 1-.36.636c-.11.168-.187.254-.23.258l-.315.034a5.42 5.42 0 0 1-.467.028 1.946 1.946 0 0 1-.414-.085c-.131-.043-.197-.121-.195-.235.004-.1.045-.254.121-.461.093-.21.182-.438.27-.69.089-.236.171-.465.248-.687.078-.207.119-.36.122-.46-.006-.057-.105-.054-.298.01a4.172 4.172 0 0 0-.773.358 9.719 9.719 0 0 0-.98.616 6.8 6.8 0 0 0-.984.784 5.373 5.373 0 0 0-.745.826c-.197.29-.288.563-.276.818.004.042.129.086.376.13.247.06.561.127.938.201.39.058.805.15 1.244.274.453.11.882.263 1.286.462.388.173.724.394 1.008.662.27.27.425.595.465.975l.045.422c0 .142 0 .27-.002.383a8.654 8.654 0 0 0 2.016-2.322c.52-.866.892-1.658 1.114-2.378"/>
        <path fill="#FFF" d="M26 9.966a1.772 1.772 0 0 0-.091.35 2.61 2.61 0 0 1-.027.153 4.54 4.54 0 0 0 .05-.134.82.82 0 0 0 .066-.177 1.254 1.254 0 0 1 .146-.442 2.08 2.08 0 0 0 .08-.264c.017-.101.041-.203.073-.306a4.83 4.83 0 0 0 .098-.288c.017-.115.042-.218.074-.307.032-.102.058-.197.077-.284.037-.19.083-.372.134-.548.022-.073.035-.139.044-.197.008-.057.017-.108.026-.151.022-.06.04-.104.05-.134a.888.888 0 0 1-.071.136.474.474 0 0 0-.047.154 2.875 2.875 0 0 0-.125.44c-.033.089-.06.177-.08.264-.03.103-.063.205-.093.308-.02.088-.046.183-.077.286a1.529 1.529 0 0 1-.075.306 3.32 3.32 0 0 0-.077.286 9.8 9.8 0 0 0-.156.55m-1.798 1.958a.315.315 0 0 0 .054-.09.241.241 0 0 1 .01-.108c-.011.03-.021.059-.033.088-.01.03-.03.06-.055.09a1.834 1.834 0 0 1-.145.25 10.48 10.48 0 0 1-.155.337c-.143.271-.291.55-.445.837a5.164 5.164 0 0 1-.271.476c-.084.151-.18.31-.29.479-.097.165-.186.325-.27.476-.098.152-.197.297-.296.436-.061.091-.162.23-.298.415a2.073 2.073 0 0 1-.13.184c-.05.062-.094.124-.13.184-.102.11-.247.282-.436.516a.336.336 0 0 1-.077.072.226.226 0 0 0-.059.048c-.027.017-.04.04-.037.068-.002-.028.01-.05.037-.068a.226.226 0 0 1 .06-.048.336.336 0 0 0 .076-.072c.054-.035.125-.106.212-.214.103-.097.186-.191.247-.283.104-.096.206-.206.308-.33l.297-.416.293-.457c.084-.151.18-.31.291-.479.184-.275.364-.592.54-.952.083-.15.16-.302.23-.45.07-.15.134-.285.192-.405.058-.12.11-.231.156-.336a6.35 6.35 0 0 0 .124-.248m-3.045 3.498a.528.528 0 0 0-.113.14l-.075.093a.33.33 0 0 1-.08.072l.02-.023c-.013.001.005-.015.06-.049a.63.63 0 0 1 .096-.095l.095-.117a.94.94 0 0 0 .155-.144c.052-.048.102-.104.152-.166.05-.062.095-.123.13-.184a.76.76 0 0 0 .15-.207c.228-.266.4-.512.52-.738l.07-.135c.036-.06.067-.107.093-.138a.929.929 0 0 0 .052-.112.63.63 0 0 0-.055.091 1.137 1.137 0 0 0-.092.138c-.024.045-.046.09-.071.135a5.467 5.467 0 0 1-.262.348c-.086.123-.18.253-.28.392-.196.29-.385.524-.565.7m1.185.11c.024-.032.036-.055.035-.069l.038-.046.037-.047a11.78 11.78 0 0 1-.113.14 1.893 1.893 0 0 0-.172.189 1.456 1.456 0 0 1-.188.233l-.095.116a.807.807 0 0 1-.115.119 1.257 1.257 0 0 1-.134.142c-.04.047-.076.093-.114.14l-.31.31c-.05.048-.147.143-.288.286a.842.842 0 0 0-.18.126.584.584 0 0 1-.136.12.256.256 0 0 1-.098.075.145.145 0 0 0-.102.053c-.026.017-.08.044-.162.081-.026.031-.052.049-.08.052a.183.183 0 0 0-.081.03 1.548 1.548 0 0 0-.163.08l-.085.009c-.028.003-.048.012-.06.028l-.021.002-.19.02-.063.007a.196.196 0 0 0-.088-.012.152.152 0 0 0-.064-.015.163.163 0 0 1-.066-.014.347.347 0 0 1-.11-.031c-.028.002-.058-.009-.09-.034a.17.17 0 0 0-.064-.014.247.247 0 0 0-.069-.036c-.015-.013-.03-.018-.045-.016l.045.016c.03.012.053.023.069.036.014-.002.036.01.067.035l.09.034c.015.013.052.03.111.052.044.01.088.026.134.05.043.01.093.01.15.005l.189-.02.085-.009c.042-.004.07-.013.081-.03a.497.497 0 0 0 .184-.083.699.699 0 0 0 .164-.06.838.838 0 0 1 .181-.104.145.145 0 0 1 .102-.053.34.34 0 0 0 .077-.073.835.835 0 0 0 .18-.125c.05-.048.103-.089.156-.123l.156-.144.155-.145c.038-.046.082-.093.134-.141a1.65 1.65 0 0 1 .154-.166c.1-.124.252-.31.452-.56l.19-.232a1.86 1.86 0 0 1 .13-.184m-4.022-1.135a3.991 3.991 0 0 1 .182-.488 3.49 3.49 0 0 1 .077-.286c.033-.088.066-.184.098-.287.045-.105.085-.209.117-.311.031-.103.069-.214.114-.333.077-.207.154-.427.228-.663.076-.236.157-.471.246-.709.09-.236.171-.472.245-.707.075-.236.158-.458.25-.666.077-.222.14-.435.19-.64l.175-.572c.051-.176.106-.338.161-.486a2.19 2.19 0 0 0 .11-.374.228.228 0 0 0 .03-.132c.009-.042.019-.08.03-.11.008-.057.019-.094.032-.11a7.274 7.274 0 0 1-.116.333 1.89 1.89 0 0 0-.152.379c-.056.133-.118.29-.185.467a9.108 9.108 0 0 1-.196.575 5.762 5.762 0 0 1-.233.621c-.09.21-.174.431-.25.667a9.93 9.93 0 0 1-.247.687c-.073.25-.154.493-.244.73-.076.22-.151.45-.226.684-.064.206-.126.419-.189.639-.05.204-.1.394-.153.57-.104.366-.179.66-.229.877a.352.352 0 0 0-.025.153.182.182 0 0 1-.013.086.336.336 0 0 0-.012.086.188.188 0 0 1 .012-.086l.034-.089.05-.133a.839.839 0 0 1 .045-.176c.008-.057.022-.123.044-.196M29.832 9.69c.044-.104.142-.122.292-.052.163.068.324.173.48.312.171.139.31.302.415.49a.539.539 0 0 1 .11.244c.002.014.003.029.006.043a.304.304 0 0 1-.009.128 25.485 25.485 0 0 1-1.047 2.009 17.403 17.403 0 0 1-1.458 2.157 11.007 11.007 0 0 1-1.67 1.754c-.59.489-1.165.762-1.728.822a1.37 1.37 0 0 1-.737-.115 1.92 1.92 0 0 1-.62-.425 2.933 2.933 0 0 1-.402-.577 1.538 1.538 0 0 1-.144-.56c.001-.129.031-.366.095-.714s.154-.77.272-1.266a21.035 21.035 0 0 1-.965 1.573c-.332.49-.663.93-.99 1.32a6.783 6.783 0 0 1-.99.936c-.332.234-.652.367-.961.4-.168.017-.372-.019-.608-.107a2.28 2.28 0 0 1-.682-.398 2.33 2.33 0 0 1-.562-.686 1.724 1.724 0 0 1-.251-.764 1.052 1.052 0 0 1-.001-.213c-.012-.24.053-.638.194-1.193.154-.557.352-1.182.592-1.876.211-.69.448-1.411.71-2.164.263-.753.509-1.454.74-2.104.216-.648.398-1.208.548-1.678.15-.471.225-.771.226-.898.002-.114.045-.176.13-.185.07-.008.159.026.266.1.136.07.274.17.415.298.141.128.27.27.387.429.112.13.211.261.296.395.084.119.13.213.137.284.01.084-.066.32-.224.706-.142.399-.32.887-.53 1.463-.207.576-.435 1.197-.678 1.863-.242.665-.466 1.3-.674 1.905a44.751 44.751 0 0 0-.514 1.59c-.136.47-.203.782-.2.938.35-.037.755-.322 1.21-.853.456-.532.92-1.184 1.394-1.959.486-.79.959-1.637 1.418-2.538.46-.9.877-1.741 1.25-2.52l.971-1.915c.26-.51.424-.77.495-.777a.602.602 0 0 1 .485.162c.142.128.259.287.35.476.104.188.18.371.228.551.047.18.076.326.089.439-.007.072-.066.32-.178.744-.111.424-.257.936-.435 1.539-.164.6-.346 1.245-.543 1.933-.184.688-.352 1.324-.504 1.908a18.163 18.163 0 0 0-.36 1.446c-.087.38-.104.565-.047.56.35-.038.717-.203 1.099-.5.38-.296.767-.678 1.158-1.145.375-.494.757-1.061 1.145-1.699.387-.638.757-1.316 1.109-2.036"/>
        <path fill="#FFF" d="M35.834 10.809c.016-.115.04-.239.068-.37l.05-.346c.015-.115.024-.23.027-.344.002-.114.012-.229.028-.344l.01-.3a11.822 11.822 0 0 0 .024-.792c0-.142 0-.27.003-.384l-.016-.147c.01-.044.013-.08.01-.108a2.511 2.511 0 0 0-.009-.084 5.806 5.806 0 0 0-.028.344 9.874 9.874 0 0 0-.077.883c-.004.1-.009.192-.014.278-.003.1-.013.2-.032.302l-.049.346c-.004.1-.02.209-.05.325l-.05.347a1.937 1.937 0 0 0-.07.349l-.049.346a3.35 3.35 0 0 1-.112.352c-.004.087-.013.151-.023.195a.732.732 0 0 1-.044.175l-.067.178a.839.839 0 0 1-.046.176l-.066.177a3.74 3.74 0 0 1-.046.176.32.32 0 0 0-.07.136l-.068.177c-.06.105-.105.21-.138.312-.033.09-.079.187-.14.293l-.071.135-.07.135a.671.671 0 0 0-.074.115.667.667 0 0 1-.073.114 1.766 1.766 0 0 0-.15.208l-.15.187a.657.657 0 0 1-.109.181c-.04.033-.083.08-.134.143l-.207.256c-.001-.014.016-.037.057-.07l.075-.094a.531.531 0 0 0 .119-.076.612.612 0 0 0 .116-.118.323.323 0 0 1 .077-.072l.057-.07c.049-.077.098-.146.15-.208.063-.064.128-.134.19-.212a.747.747 0 0 0 .073-.114.387.387 0 0 1 .095-.117c.023-.045.048-.09.07-.135a7.37 7.37 0 0 0 .072-.136c.122-.184.223-.386.298-.608a.576.576 0 0 0 .091-.158c.024-.046.046-.097.068-.157a.839.839 0 0 0 .046-.175l.066-.178c.048-.09.085-.208.113-.352a.915.915 0 0 0 .045-.176c.01-.043.025-.102.046-.175.028-.13.059-.256.088-.372a3.33 3.33 0 0 1 .07-.349m-1.12-5.193c-.04.033-.086.074-.137.122-.04.032-.087.065-.14.1a1.316 1.316 0 0 0-.134.141 1.514 1.514 0 0 0-.134.142 1.258 1.258 0 0 1-.11.162c-.038.06-.074.114-.112.16-.037.061-.074.114-.11.162l-.073.135a.622.622 0 0 0-.127.205c.003.029-.008.058-.034.09.014-.003.033-.026.058-.07a.247.247 0 0 0 .075-.094.86.86 0 0 0 .074-.114c.062-.078.123-.17.183-.276.076-.093.16-.187.249-.282a.773.773 0 0 1 .266-.305l.113-.14a.313.313 0 0 0 .06-.048.226.226 0 0 1 .057-.05c.08-.05.139-.1.177-.146.014-.002.027-.01.04-.026l.02-.002c.015-.001.02-.01.02-.023-.014.002-.041.019-.08.051a1.586 1.586 0 0 0-.202.106m.23 8.273a1.3 1.3 0 0 1 .038-.047c-.003-.014.003-.029.016-.045.015 0 .02-.009.02-.022l-.323.396c-.048.076-.096.152-.146.228a2.444 2.444 0 0 0-.19.212 2.485 2.485 0 0 0-.21.236 2.423 2.423 0 0 1-.212.214 1.925 1.925 0 0 0-.236.195 1.45 1.45 0 0 0-.138.1l-.118.098c-.107.068-.18.119-.219.15l-.122.056a.945.945 0 0 0-.102.054c-.148.072-.27.128-.365.166a.237.237 0 0 1-.104.032c-.014.002-.02.01-.019.023l.021-.002a.242.242 0 0 0 .104-.032c.054-.02.117-.041.185-.062.068-.021.137-.05.204-.086a.853.853 0 0 1 .102-.053.231.231 0 0 0 .122-.055c.054-.02.135-.064.241-.132a.936.936 0 0 0 .257-.198c.067-.035.154-.102.256-.198a4.13 4.13 0 0 0 .398-.468 3.246 3.246 0 0 0 .448-.623.875.875 0 0 0 .092-.137m-.902-7.157c-.05.063-.15.187-.302.373a3.937 3.937 0 0 0-.388.575L33.13 8c-.06.12-.124.24-.198.362l-.199.341c-.073.107-.14.214-.2.32a1.988 1.988 0 0 1-.178.338 2.114 2.114 0 0 1-.141.271 1.625 1.625 0 0 0-.229.471.568.568 0 0 0-.068.157c.024-.045.053-.098.09-.159.022-.06.051-.118.088-.18.034-.074.09-.159.165-.251.047-.09.101-.189.161-.295.061-.09.122-.197.18-.317.06-.106.127-.213.201-.32.06-.106.126-.22.2-.34a4.85 4.85 0 0 0 .195-.363c.074-.107.14-.213.201-.319.06-.106.122-.204.183-.296s.13-.178.207-.257c.062-.091.11-.175.144-.25a.843.843 0 0 1 .11-.182.524.524 0 0 1 .113-.14 9.659 9.659 0 0 0-.114.14m-2.197 2.023c-.046.104-.086.2-.12.29a1.336 1.336 0 0 0-.081.221.714.714 0 0 0-.067.199c-.001-.014.005-.028.018-.044l.07-.136c.023-.06.059-.133.106-.224.032-.09.072-.186.119-.29a3.91 3.91 0 0 1 .2-.32c.06-.105.125-.225.197-.361.059-.12.13-.249.216-.386.072-.12.152-.243.239-.366.156-.258.322-.51.494-.756.147-.242.3-.458.466-.646.062-.092.117-.176.166-.252.065-.063.116-.118.153-.165a.34.34 0 0 0 .055-.09c-.002-.015.003-.03.016-.046a1.3 1.3 0 0 0 .038-.047l-.038.047-.094.117a2.075 2.075 0 0 1-.154.166 3.042 3.042 0 0 0-.185.254 1.59 1.59 0 0 0-.25.282c-.072.107-.152.222-.24.345l-.259.368a6.055 6.055 0 0 1-.258.39l-.218.364a4.574 4.574 0 0 0-.215.385c-.071.135-.136.256-.196.362a7.26 7.26 0 0 1-.178.339m-.603 4.2c-.004.243.003.512.02.808.01.086.017.163.024.233.025.225.06.434.109.628.07.263.18.48.325.648a.625.625 0 0 0 .554.199c.477-.05.897-.251 1.259-.602.375-.352.706-.786.993-1.3.27-.54.498-1.139.686-1.798.173-.658.302-1.312.39-1.961.115-.666.183-1.306.204-1.92.023-.599.01-1.124-.037-1.574-.314.132-.677.462-1.09.989-.38.438-.852 1.1-1.413 1.983-.56.883-1.236 2.106-2.024 3.668m-.655-5.22c.017-.102.035-.196.055-.284a.711.711 0 0 1 .044-.196.268.268 0 0 0 .051-.113l-.002-.02-.002-.022-.022.002c-.036.19-.086.4-.146.635-.049.204-.118.439-.203.703-.072.264-.154.57-.245.922a123.7 123.7 0 0 1-.655 2.287 374.2 374.2 0 0 0-.726 2.635c-.31 1.099-.777 2.747-1.4 4.946-.215.79-.428 1.531-.64 2.222.001.014.009.02.023.018.01-.043.026-.095.047-.154l.067-.178a13.1 13.1 0 0 1 .08-.264c.062-.22.136-.455.224-.706.1-.267.196-.575.287-.926.107-.324.226-.685.354-1.082.117-.382.231-.778.346-1.188.125-.425.25-.858.374-1.298.14-.441.27-.888.393-1.343a81.1 81.1 0 0 0 .35-1.337c.124-.44.243-.871.354-1.295.124-.44.237-.85.34-1.23.103-.38.192-.738.27-1.074.052-.19.091-.358.119-.503.041-.146.075-.292.103-.437.041-.146.07-.277.087-.393.03-.117.054-.226.073-.328m-3.675 13.95a8.08 8.08 0 0 1 .167-.635c.066-.207.116-.397.154-.572.039-.174.085-.35.138-.526l-.05.134a1.03 1.03 0 0 0-.068.177l-.061.22a2.08 2.08 0 0 1-.08.265c-.034.088-.058.183-.076.284a2.841 2.841 0 0 0-.116.311c-.035.09-.066.2-.095.33-.015.115-.04.224-.072.328a1.68 1.68 0 0 0-.077.285 5.19 5.19 0 0 1-.131.568 2.095 2.095 0 0 0-.088.393 9.193 9.193 0 0 0-.023.174c.01-.044.025-.095.047-.155a.483.483 0 0 0 .048-.154c.02-.073.04-.153.06-.24.02-.074.048-.155.082-.244.033-.089.057-.19.074-.306l.096-.31c.017-.1.04-.21.071-.327m13.13-13.067c.078-.207.21-.299.397-.276.175.039.348.141.523.307.186.152.335.342.444.572a.883.883 0 0 1 .095.29.594.594 0 0 1-.036.28 15.182 15.182 0 0 1-1.02 2.048c-.42.755-.955 1.473-1.609 2.153a9.947 9.947 0 0 1-2.266 1.773c-.872.504-1.876.823-3.014.957l-.042.004-.02.003-.043.004a2.692 2.692 0 0 1-.971-.111 3.12 3.12 0 0 1-.834-.425 3.496 3.496 0 0 1-.643-.636 5.162 5.162 0 0 1-.501-.715 157.24 157.24 0 0 0-.878 3.419 135.277 135.277 0 0 0-.765 3.067 75.682 75.682 0 0 0-.55 2.275c-.136.612-.196.98-.183 1.107.008.07-.023.11-.094.117a.696.696 0 0 1-.216-.02 4.152 4.152 0 0 1-.728-.244 3.347 3.347 0 0 1-.77-.41c-.23-.16-.35-.304-.364-.43-.008-.07.06-.383.2-.938.156-.542.352-1.246.589-2.11.234-.877.508-1.86.821-2.944.3-1.069.617-2.175.952-3.32.32-1.143.63-2.263.926-3.36.311-1.1.582-2.095.816-2.987.235-.878.42-1.615.557-2.212.152-.585.222-.934.21-1.046-.035-.337.023-.514.179-.53l.02-.003c.155-.016.342.057.557.219.216.162.422.36.618.596.197.25.304.459.322.627.007.071-.017.25-.072.541-.055.29-.137.661-.245 1.114.523-.837 1.026-1.537 1.507-2.1.495-.563.925-.865 1.291-.903.197-.021.4.022.61.128.212.12.419.325.619.617.2.278.382.657.547 1.137.151.496.264 1.095.338 1.798.04.38.047.792.024 1.235-.024.458-.073.932-.15 1.424-.077.49-.182.978-.316 1.462-.132.497-.287.976-.467 1.435.49-.35.925-.73 1.31-1.14.394-.425.748-.854 1.059-1.284.292-.458.544-.904.754-1.338.21-.449.38-.858.512-1.227"/>
        <path fill="#FFF" d="M45.7 13.568c.066-.05.125-.098.177-.146.052-.048.098-.089.137-.121a.92.92 0 0 1-.16.102 1.398 1.398 0 0 1-.197.149 1.32 1.32 0 0 0-.22.15 2.434 2.434 0 0 1-.283.137.79.79 0 0 1-.163.081c-.04.019-.087.045-.14.079a3.538 3.538 0 0 1-.163.08c-.056.02-.117.042-.186.064a.806.806 0 0 1-.162.08 1.218 1.218 0 0 0-.14.08.695.695 0 0 1-.167.038 6.48 6.48 0 0 1-.185.062 6.71 6.71 0 0 0-.29.095l-.147.015a.411.411 0 0 1-.124.034c-.054.02-.139.036-.251.048a.77.77 0 0 1-.188.041l-.063.007a.162.162 0 0 1-.062.027l-.04.005.168-.018c.043-.004.105-.01.19-.02a1.17 1.17 0 0 0 .25-.047 1.44 1.44 0 0 0 .272-.05c.07-.008.175-.033.312-.076.07-.021.124-.041.165-.06a.988.988 0 0 0 .331-.099.527.527 0 0 0 .185-.062.28.28 0 0 1 .161-.08c.041-.02.096-.046.163-.082l.303-.16c.093-.066.186-.126.28-.178.08-.051.16-.11.237-.175M45.19 6.67a.062.062 0 0 0-.017.045c-.012.016-.017.037-.015.065a1.376 1.376 0 0 1-.098.288c-.02.073-.06.163-.12.268-.022.06-.07.15-.143.271l-.178.34c-.036.046-.075.092-.112.14-.036.06-.074.113-.111.16a.748.748 0 0 0-.132.163 1.1 1.1 0 0 1-.159.123c-.024.032-.069.079-.134.143a.317.317 0 0 1-.077.071c-.029.003-.056.02-.08.052-.103.096-.21.171-.317.225a.78.78 0 0 1-.183.083.853.853 0 0 0-.163.08.905.905 0 0 1-.31.098l-.246.09-.232.024a.48.48 0 0 1-.146.037l-.043.004.191-.02.232-.024a.407.407 0 0 0 .124-.035l.149-.015c.04-.019.088-.038.142-.058a.684.684 0 0 0 .166-.039.79.79 0 0 1 .163-.081.815.815 0 0 0 .184-.083.883.883 0 0 0 .159-.103c.053-.033.114-.068.181-.104a.336.336 0 0 1 .077-.071.351.351 0 0 0 .079-.073.94.94 0 0 0 .133-.142.491.491 0 0 0 .179-.125.805.805 0 0 1 .132-.164c.037-.06.073-.114.112-.16.038-.047.074-.1.11-.161a.553.553 0 0 1 .09-.159c.037-.06.066-.121.089-.18.02-.06.044-.111.068-.157a.546.546 0 0 1 .05-.133.681.681 0 0 0 .1-.266c.021-.074.042-.14.065-.199.008-.057.022-.13.04-.218m-2.907 2.567c.59-.062 1.075-.248 1.455-.558a3.21 3.21 0 0 0 .892-1.054 5.53 5.53 0 0 0 .483-1.287c.096-.45.167-.85.216-1.197a.403.403 0 0 1-.129-.007l-.127.013c-.28.03-.573.16-.875.39a4.61 4.61 0 0 0-.884.926 8.193 8.193 0 0 0-.804 1.278 9.99 9.99 0 0 0-.656 1.477c.103.032.246.039.429.02m-1.239-2.452a1.138 1.138 0 0 0-.052.112l-.034.09a.142.142 0 0 1 .058-.07.803.803 0 0 1 .052-.113c.062-.077.13-.176.202-.298.088-.123.18-.246.282-.37a2.09 2.09 0 0 1 .148-.208l.17-.21.189-.234a1.07 1.07 0 0 0 .21-.235c.063-.077.134-.149.211-.214l.232-.238c.077-.079.161-.152.254-.218.094-.053.18-.111.26-.177a2.13 2.13 0 0 1 .581-.338c.162-.088.354-.159.576-.21l.295-.031c.1-.01.198-.007.3.011.028-.003.05.002.065.015l.064-.007c.03.01.051.015.065.014a.16.16 0 0 1 .066.014.15.15 0 0 0 .065.015.166.166 0 0 1 .066.015c.03.025.068.035.11.03.147.042.289.112.427.211.06.023.112.053.16.09a.766.766 0 0 0 .136.092l.093.076a.143.143 0 0 0 .07.057c.032.024.053.037.068.035a.241.241 0 0 1-.048-.058 1.579 1.579 0 0 1-.166-.154l-.116-.094a.428.428 0 0 1-.162-.11 2.384 2.384 0 0 1-.202-.107.83.83 0 0 0-.226-.127.336.336 0 0 1-.132-.028.469.469 0 0 0-.113-.052.91.91 0 0 1-.152-.027.174.174 0 0 0-.065-.014.146.146 0 0 1-.065-.015 2.99 2.99 0 0 0-.49.01l-.148.014-.31.076a2.01 2.01 0 0 0-.33.12 2.69 2.69 0 0 0-.564.315 2.267 2.267 0 0 0-.297.223c-.078.066-.163.138-.253.219l-.232.237a3.055 3.055 0 0 1-.21.235 4.165 4.165 0 0 0-.375.488l-.317.438a3.588 3.588 0 0 0-.256.411c-.057.12-.11.218-.16.294m-.407 1.195c.036-.06.064-.12.087-.18l.11-.182c.022-.06.05-.12.086-.18a.493.493 0 0 0 .089-.18l.162-.273a4.01 4.01 0 0 1 .187-.254.671.671 0 0 0 .109-.182c.025-.031.037-.054.036-.067.013-.016.024-.032.038-.047-.002-.014.01-.03.037-.046-.014 0-.027.016-.037.046-.014.015-.025.03-.038.047 0 .013-.011.036-.036.067l-.132.164-.19.233a.79.79 0 0 1-.091.137.576.576 0 0 0-.09.159c-.036.06-.073.114-.11.16-.023.06-.053.12-.088.18-.036.062-.073.122-.11.183-.022.059-.051.119-.087.18-.058.12-.124.254-.192.404a3.082 3.082 0 0 1-.065.198 2.576 2.576 0 0 0-.064.199 2.14 2.14 0 0 1-.065.198 2.439 2.439 0 0 0-.107.396.833.833 0 0 1-.046.175c-.013.144-.03.26-.048.346a3.47 3.47 0 0 0-.032.303c-.006.085-.005.164.002.234a.183.183 0 0 0-.012.087.25.25 0 0 0 .032.103l-.006-.064a.386.386 0 0 1 .007-.128.237.237 0 0 0 .01-.108.26.26 0 0 1 .01-.107l.03-.324a.225.225 0 0 0 .03-.13 1.4 1.4 0 0 1 .043-.197.817.817 0 0 0 .045-.176 2.499 2.499 0 0 1 .107-.395c.023-.059.044-.126.065-.199.023-.059.051-.119.088-.18.022-.059.043-.125.064-.199.02-.073.049-.147.083-.221.037-.06.066-.121.089-.18m8.627-.288c.178.066.347.183.507.352.147.183.233.394.26.634.013.14-.044.402-.175.785-.143.399-.346.84-.607 1.323-.26.496-.576 1.013-.946 1.55-.383.552-.813 1.059-1.29 1.521a7.905 7.905 0 0 1-1.537 1.207 4.373 4.373 0 0 1-1.773.591c-.421.045-.857-.045-1.307-.268a5.654 5.654 0 0 1-1.313-.928 6.047 6.047 0 0 1-.995-1.345 4.098 4.098 0 0 1-.504-1.547 5.543 5.543 0 0 1 .087-1.61c.109-.593.274-1.18.498-1.757.237-.594.511-1.163.822-1.708a10.74 10.74 0 0 1 1.038-1.495c.38-.438.77-.792 1.168-1.06.411-.286.813-.45 1.207-.49.52-.055.948.021 1.282.227.333.193.594.435.781.729.198.264.317.514.356.751.093.474.01 1.18-.247 2.117a5.245 5.245 0 0 1-.72 1.462 4.595 4.595 0 0 1-1.099 1.117 2.927 2.927 0 0 1-1.434.556c-.366.039-.69.008-.97-.09a2.725 2.725 0 0 1-.744-.39c-.225.833-.303 1.588-.231 2.263.024.239.064.484.118.734.056.25.129.477.222.68.091.19.215.347.37.473a.757.757 0 0 0 .547.135 4.345 4.345 0 0 0 1.753-.568 6.932 6.932 0 0 0 1.44-1.111 8.52 8.52 0 0 0 1.13-1.42c.318-.489.59-.958.812-1.408.236-.465.415-.861.536-1.187.123-.326.206-.54.252-.645.12-.225.319-.297.597-.212.029.011.066.022.11.032"/>
        <path fill="#FFF" d="M51.561 9.668a1.602 1.602 0 0 1-.007-.063.184.184 0 0 0 .012-.087c-.001-.014.005-.029.016-.044-.011.015-.017.03-.016.044-.012.016-.017.038-.014.065a.173.173 0 0 1-.014.067 3.886 3.886 0 0 0-.06.24c-.022.073-.04.16-.058.262-.018.102-.043.21-.072.327a4.736 4.736 0 0 0-.047.368.807.807 0 0 1-.046.175l-.02.216-.024.386a1.36 1.36 0 0 0 .002.213c-.006.072-.006.143 0 .214a.425.425 0 0 0 .02.19.93.93 0 0 1 0 .191c.02.07.036.139.043.209.006.057.02.112.04.167a.185.185 0 0 1 .029.082.184.184 0 0 0 .03.082c.005.042.023.09.058.143.003.042.023.09.058.143.03.025.047.045.048.06.014-.002.03.01.047.037l.056.122c.03.026.054.051.071.077l.093.076c.001.014.011.028.026.04l.021-.002-.02.002-.027-.04a.274.274 0 0 1-.074-.098.505.505 0 0 1-.127-.2c-.015-.013-.025-.026-.026-.04a.14.14 0 0 0-.029-.061c-.047-.052-.073-.092-.075-.12a.192.192 0 0 1-.03-.082.193.193 0 0 0-.03-.083l-.01-.084c-.014-.013-.024-.033-.026-.061a.695.695 0 0 1-.04-.167l-.021-.21-.02-.19a.97.97 0 0 1 0-.192.843.843 0 0 1 .001-.192 1.36 1.36 0 0 1 0-.213.942.942 0 0 0 0-.193.412.412 0 0 1 .042-.218c.006-.071.007-.135.001-.191a.803.803 0 0 1 .046-.176 10.541 10.541 0 0 1 .097-.693c.017-.243.042-.409.076-.498m-.474 1.778a.174.174 0 0 1-.015.065c-.011.03-.027.088-.046.175-.003.1-.008.194-.012.28-.005.1-.008.206-.01.32.027.253.068.448.126.584.022.082.05.144.083.183a.175.175 0 0 1 .028.061c-.017-.013-.025-.033-.028-.061l-.009-.084a.226.226 0 0 1-.032-.104 1.735 1.735 0 0 1-.05-.272l-.033-.316.01-.3a1.27 1.27 0 0 1-.004-.255.565.565 0 0 1-.001-.213c-.003-.014-.004-.035-.007-.063m-.86-7.567a.533.533 0 0 1 .05-.133c.022-.06.038-.11.048-.154a.514.514 0 0 0 .05-.134c.01-.044.018-.094.027-.152a.225.225 0 0 1 .035-.067.21.21 0 0 1 .012-.087.215.215 0 0 0 .032-.11l.046-.175a1.602 1.602 0 0 1-.008-.063l-.001-.022a.27.27 0 0 1-.036.068.183.183 0 0 1-.013.087c-.01.03-.021.059-.033.088-.019.088-.04.175-.058.263a5.277 5.277 0 0 1-.098.287 5.49 5.49 0 0 1-.097.288 1.14 1.14 0 0 1-.103.245c-.019.088-.039.16-.061.22l-.02.023.022-.002c-.002-.015.004-.029.017-.045a.304.304 0 0 1 .054-.09c-.003-.029.008-.058.033-.09.022-.059.057-.14.102-.245m-.842.11c.1.118.251.222.46.314.238-.721.434-1.346.592-1.874a.376.376 0 0 0 .025-.174.465.465 0 0 0-.158-.282.68.68 0 0 0-.44-.125c-.225.024-.434.196-.628.514-.15.343-.21.648-.18.915.027.268.137.505.33.712m-1.27-1.53a.595.595 0 0 1-.03.13c-.01.03-.02.06-.032.09 0 .013.003.035.006.063l.003.021c.012-.015.017-.044.012-.086a.126.126 0 0 1 .032-.09.152.152 0 0 1 .032-.109.278.278 0 0 1 .052-.113.476.476 0 0 1 .048-.153c.022-.06.038-.111.048-.155.01-.044.025-.095.048-.154a.566.566 0 0 0 .09-.159.507.507 0 0 1 .047-.155.495.495 0 0 0 .05-.132l.071-.135a.72.72 0 0 1 .089-.18.088.088 0 0 0 .014-.066l-.003-.021c-.01.03-.022.058-.033.089a.486.486 0 0 0-.112.16 2.418 2.418 0 0 1-.12.27 37.72 37.72 0 0 0-.138.313 5.25 5.25 0 0 0-.098.286c-.03.117-.056.213-.076.286m-.055-.315l-.018.024c.001.014.002.028.005.042l.002.021c.01-.03.021-.059.033-.089a.207.207 0 0 1 .03-.11.44.44 0 0 0 .053-.112.49.49 0 0 0 .048-.154c.022-.059.045-.11.068-.156a.273.273 0 0 1 .053-.112.256.256 0 0 0 .035-.068.214.214 0 0 1 .034-.089c.027-.017.044-.047.053-.091.012-.03.042-.09.089-.18a.548.548 0 0 0 .09-.159.538.538 0 0 0 .09-.158.365.365 0 0 0 .093-.117.52.52 0 0 1 .097-.096c-.003-.028.01-.043.039-.046-.002-.014.004-.029.016-.044a.292.292 0 0 0 .06-.05L49.05.4l-.023-.02a.737.737 0 0 1-.078.073l-.08.051a.688.688 0 0 0-.097.095c-.013.016-.05.056-.115.119a.262.262 0 0 1-.059.05.635.635 0 0 1-.054.09c-.037.06-.073.115-.111.161-.023.06-.052.119-.088.18a.983.983 0 0 1-.088.18 3.01 3.01 0 0 1-.086.201 2.074 2.074 0 0 0-.071.327.802.802 0 0 0-.04.238m8.66 4.87c.069-.15.196-.226.38-.231.2.007.39.065.574.174.18.095.335.228.467.398a.608.608 0 0 1 .14.306c.006.07 0 .135-.023.194-.068.163-.188.44-.362.827-.172.388-.403.824-.692 1.31-.262.497-.57 1.012-.927 1.548a12.68 12.68 0 0 1-1.06 1.476 8.524 8.524 0 0 1-1.137 1.143c-.366.309-.725.482-1.077.519-.084.008-.243-.024-.479-.1a2.452 2.452 0 0 1-.725-.393 2.854 2.854 0 0 1-.692-.716c-.2-.277-.323-.627-.367-1.049-.058-.548-.007-1.144.154-1.786.174-.644.363-1.268.571-1.873.219-.62.423-1.182.611-1.685.175-.502.248-.886.221-1.154-.006-.056-.115-.13-.323-.222-.22-.076-.456-.15-.706-.224-.199.533-.427 1.132-.684 1.8a47.52 47.52 0 0 1-.688 1.778c-.077.222-.195.305-.358.25a1.404 1.404 0 0 1-.504-.33 2.404 2.404 0 0 1-.402-.576 1.094 1.094 0 0 1-.097-.31.387.387 0 0 1 .04-.24c.152-.455.314-.934.488-1.436.16-.515.322-1.001.487-1.46a3.607 3.607 0 0 1-1.242-.658c-.267-.384-.42-.759-.46-1.125-.003-.028-.004-.049-.007-.063.003-1.877.495-2.867 1.48-2.97.42-.045.924.073 1.509.353 1.216.753 1.551 1.912 1.005 3.477a8.64 8.64 0 0 1-.26.774c.249.073.522.165.819.277.295.11.565.239.807.384.27.128.485.282.647.465a.986.986 0 0 1 .295.587c.016.14-.028.402-.13.782-.1.394-.232.827-.397 1.3-.134.484-.287.99-.46 1.52-.171.53-.312 1.006-.425 1.431-.11.438-.185.794-.228 1.069-.028.272.021.403.148.39.238-.026.501-.167.786-.425.284-.271.571-.6.857-.985.285-.4.559-.834.823-1.302.264-.469.507-.921.731-1.357.211-.435.399-.817.562-1.147.149-.342.253-.58.31-.715"/>
    </g>
</svg>
