<svg xmlns="http://www.w3.org/2000/svg" width="66" height="33" viewBox="0 0 66 33">
    <defs>
        <linearGradient id="a" x1="6.033%" x2="97.117%" y1="53.897%" y2="45.1%">
            <stop offset="0%" stop-color="#FFCE1F"/>
            <stop offset="100%" stop-color="#F7B436"/>
        </linearGradient>
    </defs>
    <g fill="none" fill-rule="evenodd">
        <path d="M-16.582 35.443l88.98-9.723"/>
        <path fill="url(#a)" fill-rule="nonzero" d="M29.719 4.41l-4.443.328-.959 8.987-2.445-8.734-4.424.327.01 13.44 3.5-.26-.215-4.992c-.078-1.832-.23-3.367-.559-5.451l2.614 8.915 3.366-.25 1.156-9.194c-.017 1.858.157 3.683.347 5.467l.542 4.968 3.5-.259L29.72 4.41zm8.071-.947c-3.885.288-5.918 3.127-5.596 7.473.33 4.443 2.753 6.874 6.638 6.587 3.885-.288 5.936-3.147 5.614-7.494-.33-4.443-2.77-6.853-6.656-6.566zm.19 2.558c1.654-.122 2.514 1.052 2.754 4.283.24 3.231-.418 4.537-2.092 4.66-1.615.12-2.516-1.07-2.755-4.301-.24-3.231.458-4.52 2.093-4.642zm17.896-3.55l-3.635.27-1.318 10.927-3.087-10.6-3.75.277 4.702 13.092 4.54-.336 2.548-13.63zm4.231-.313l-3.558.264.99 13.367 3.558-.264-.99-13.367zm10.56-.782l-8.483.628.99 13.367 8.425-.624-.187-2.52-4.866.361-.225-3.038 3.981-.295-.18-2.443-3.982.295-.21-2.847 4.557-.337.18-2.547zm6.166-.805c2.078-.154 3.625.37 4.901 1.416L80.278 3.99c-.978-.662-1.928-.959-2.986-.88-1.038.076-1.585.523-1.531 1.254.057.77.577 1.001 2.625 1.507 2.697.632 4.108 1.668 4.287 4.092.187 2.52-1.72 4.44-5.144 4.693-2.443.181-4.182-.58-5.356-1.556l1.606-2.072c1.04.735 2.136 1.156 3.424 1.061 1.231-.091 1.862-.718 1.797-1.584-.065-.884-.555-1.235-2.443-1.656-3.188-.75-4.284-1.964-4.43-3.926-.18-2.443 1.84-4.14 4.706-4.352z" transform="translate(-17 13.776)"/>
        <path fill="#FFF" d="M13.531 15.122a.302.302 0 0 0 .071-.067c.012-.013.024-.021.037-.023l-.11.07c-.025.016-.073.04-.147.074a.784.784 0 0 1-.166.095 1.432 1.432 0 0 1-.245.084 4.906 4.906 0 0 1-.241.104l-.286.069c-.088.022-.19.046-.303.071l-.29.03a.493.493 0 0 1-.27.029.617.617 0 0 1-.156-.004l-.134.015a.376.376 0 0 0-.119-.007.37.37 0 0 1-.117-.008.315.315 0 0 0-.098-.009.204.204 0 0 1-.098-.01 1.331 1.331 0 0 1-.162-.04l-.12-.046.02.017a.462.462 0 0 0 .103.048.15.15 0 0 0 .06.013l.082.03c.026.01.06.014.098.01a.71.71 0 0 1 .1.028c.105.015.191.025.256.032.041.008.086.01.138.005a.409.409 0 0 1 .136.005l.289-.03.29-.031c.113-.025.215-.05.303-.071.102-.024.195-.053.283-.088.05-.019.094-.036.131-.053a1.39 1.39 0 0 1 .15-.055c.1-.036.169-.07.204-.099a.793.793 0 0 0 .092-.048.733.733 0 0 0 .093-.049c.036-.03.078-.06.126-.091M9.398 9.887c.044-.069.094-.146.15-.23.043-.082.093-.165.15-.249.056-.084.118-.162.19-.234.056-.07.108-.141.152-.21a.946.946 0 0 1 .102-.148l.05-.064a.202.202 0 0 1-.052.045l-.074.046c-.023.029-.045.058-.069.086-.08.099-.201.242-.364.427a1.905 1.905 0 0 0-.257.514c-.043.083-.07.138-.08.165a.155.155 0 0 0-.014.06c.014-.002.019-.01.017-.022l.016-.04c.024-.029.034-.05.033-.062.01-.014.016-.027.015-.04.01-.015.023-.03.035-.044m-.232.025c.031-.068.062-.142.093-.224a1.29 1.29 0 0 1 .113-.226l.304-.44c.126-.157.254-.307.381-.45l.422-.434c.294-.291.599-.55.912-.778.314-.228.598-.427.853-.596l.367-.214c.097-.062.183-.11.257-.143l.11-.07a.209.209 0 0 0 .094-.03l.058-.006c.013-.001.018-.008.017-.021l-.018.002-.04.004c.002.013-.005.02-.017.02a1.244 1.244 0 0 1-.206.08c-.087.036-.18.085-.276.147-.111.05-.235.116-.37.194a4.994 4.994 0 0 0-.42.26c-.147.092-.291.198-.434.317-.169.122-.331.25-.486.383-.142.132-.29.264-.445.397a6.53 6.53 0 0 0-.802.903 1.36 1.36 0 0 0-.15.23c-.056.083-.107.16-.152.23-.044.07-.082.145-.112.226a3.314 3.314 0 0 1-.094.224c-.086.165-.13.293-.134.384l-.04.18.007.077a.19.19 0 0 0-.01.078 1.216 1.216 0 0 0 .01.273c-.003-.014-.004-.033-.007-.059a.32.32 0 0 1 .01-.098.478.478 0 0 1 .006-.118.613.613 0 0 1 .003-.155c.01-.028.024-.08.042-.16a.752.752 0 0 1 .058-.182l.096-.205m8.67.024c.058-.188.168-.265.327-.23.16.035.311.124.456.265.158.139.286.313.387.524.05.112.08.212.09.302a.409.409 0 0 1-.035.218 12.905 12.905 0 0 1-.857 1.862c-.37.675-.835 1.322-1.394 1.939a8.36 8.36 0 0 1-1.938 1.567c-.757.456-1.63.743-2.618.86-.089.022-.17.043-.246.064l-.27.029c-.398.041-.74 0-1.025-.126a2.07 2.07 0 0 1-.717-.51 2.108 2.108 0 0 1-.43-.752 2.616 2.616 0 0 1-.144-.823c-.002-.26.022-.47.07-.63a.827.827 0 0 1 .162-.31c.058-.071.105-.109.144-.113.052.008.082.03.085.07.015.388.124.688.328.9.205.212.453.355.747.428.317.057.656.061 1.014.01.358-.05.679-.142.964-.276.309-.15.564-.32.766-.51.198-.202.298-.427.298-.673-.006-.182-.137-.317-.393-.408a6.912 6.912 0 0 0-.981-.247c-.37-.064-.781-.139-1.231-.22a5.363 5.363 0 0 1-1.265-.355c-.38-.168-.703-.4-.968-.697-.207-.238-.331-.556-.373-.954l-.003-.02-.007-.077a2.653 2.653 0 0 1-.012-.115c-.01-.454.082-.885.272-1.295.19-.41.442-.8.754-1.17.3-.356.641-.69 1.024-1.004.384-.3.765-.56 1.145-.782a9.963 9.963 0 0 1 1.093-.544c.336-.126.62-.2.852-.225a.8.8 0 0 1 .58.153c.171.138.314.324.43.558.112.21.202.44.267.693.053.255.083.478.09.672.01.207-.025.438-.102.693a5.21 5.21 0 0 1-.272.75c-.12.22-.23.413-.328.58-.101.153-.171.23-.21.235l-.289.03a4.95 4.95 0 0 1-.425.027 1.777 1.777 0 0 1-.378-.078c-.12-.04-.181-.11-.179-.215.003-.092.04-.232.11-.421.085-.19.167-.4.248-.63.08-.216.156-.425.226-.627.07-.19.108-.33.111-.42-.005-.052-.095-.05-.272.008a3.81 3.81 0 0 0-.706.328c-.27.145-.568.333-.895.562a6.21 6.21 0 0 0-.899.717c-.272.25-.5.5-.68.753-.18.266-.264.515-.252.748.003.038.117.078.343.12.226.053.513.114.857.182.356.053.735.137 1.136.25.413.1.805.24 1.174.422.355.158.662.36.92.605.248.247.39.543.426.89l.04.385-.001.35a7.904 7.904 0 0 0 1.841-2.12c.476-.79.815-1.515 1.018-2.172"/>
        <path fill="#FFF" d="M24.099 9.102c-.05.148-.077.255-.083.32a2.384 2.384 0 0 1-.025.14l.045-.122a.748.748 0 0 0 .061-.162 1.146 1.146 0 0 1 .133-.403 1.9 1.9 0 0 0 .073-.242 2.22 2.22 0 0 1 .068-.28c.03-.081.06-.169.089-.263.015-.105.038-.199.068-.28.029-.094.053-.18.07-.26.033-.173.075-.34.123-.5.019-.067.032-.127.04-.18.007-.052.015-.099.023-.138.02-.055.037-.095.046-.122a.811.811 0 0 1-.065.124.433.433 0 0 0-.043.14 2.626 2.626 0 0 0-.114.402c-.03.081-.054.162-.072.242-.029.093-.059.187-.086.281-.019.08-.042.167-.07.26-.016.107-.04.2-.07.28-.028.095-.052.181-.07.261a8.95 8.95 0 0 0-.141.502m-1.642 1.79a.288.288 0 0 0 .049-.084.22.22 0 0 1 .008-.098l-.03.081a.281.281 0 0 1-.05.083 1.675 1.675 0 0 1-.132.228c-.042.095-.089.198-.142.307-.13.248-.266.502-.407.764a4.717 4.717 0 0 1-.247.435 7.269 7.269 0 0 1-.265.437c-.088.152-.17.297-.246.435-.09.139-.18.272-.27.399-.057.083-.148.21-.273.379-.044.07-.084.125-.118.168a1.327 1.327 0 0 0-.118.168 9.85 9.85 0 0 0-.4.47.307.307 0 0 1-.07.066.206.206 0 0 0-.053.045c-.025.016-.036.036-.034.062-.002-.026.009-.046.034-.062.01-.014.029-.03.054-.045a.307.307 0 0 0 .07-.065.937.937 0 0 0 .193-.196c.095-.088.17-.174.226-.258.095-.087.188-.188.28-.302.091-.126.182-.252.272-.38.09-.138.179-.277.268-.417.076-.138.165-.283.266-.437.168-.251.332-.54.493-.87.076-.137.146-.275.21-.411.063-.137.122-.26.175-.37.054-.109.101-.21.143-.306.044-.083.081-.158.114-.227m-2.781 3.195a.482.482 0 0 0-.104.128 3.31 3.31 0 0 0-.069.085.302.302 0 0 1-.072.066l.018-.021c-.013 0 .004-.014.054-.045a.575.575 0 0 1 .088-.087l.087-.106a.86.86 0 0 0 .141-.132c.048-.044.094-.095.14-.152.045-.056.086-.113.119-.168a.695.695 0 0 0 .135-.19c.21-.242.366-.467.475-.673l.065-.123c.033-.055.06-.098.085-.126a.848.848 0 0 0 .047-.103.575.575 0 0 0-.05.083c-.023.03-.051.071-.084.127-.022.041-.042.082-.065.123a4.993 4.993 0 0 1-.239.317c-.079.113-.164.232-.255.359-.18.265-.352.478-.516.638m1.081.101c.023-.029.033-.05.032-.062l.035-.043.034-.043-.103.128a1.73 1.73 0 0 0-.158.173 1.33 1.33 0 0 1-.172.212c-.022.03-.051.064-.085.107a.737.737 0 0 1-.106.108 1.148 1.148 0 0 1-.123.13l-.103.128c-.06.058-.153.153-.283.283-.046.044-.135.131-.264.262a.769.769 0 0 0-.163.114.533.533 0 0 1-.125.11.234.234 0 0 1-.09.068.132.132 0 0 0-.093.05c-.024.015-.073.04-.148.073-.023.028-.047.044-.073.047a.167.167 0 0 0-.074.027 1.414 1.414 0 0 0-.149.074l-.077.008c-.026.003-.044.011-.055.025l-.02.003-.173.018-.057.006a.179.179 0 0 0-.08-.011.139.139 0 0 0-.06-.013.15.15 0 0 1-.06-.014.317.317 0 0 1-.1-.028c-.026.002-.053-.007-.082-.03a.155.155 0 0 0-.059-.014.226.226 0 0 0-.063-.032c-.013-.012-.027-.017-.04-.015l.04.015c.029.01.049.02.063.032.013 0 .033.01.061.033l.082.03a.46.46 0 0 0 .102.048.51.51 0 0 1 .122.046c.04.008.085.01.137.004l.173-.018.078-.008c.038-.004.063-.012.074-.027a.454.454 0 0 0 .168-.076.638.638 0 0 0 .15-.055.766.766 0 0 1 .165-.095.132.132 0 0 1 .093-.049.311.311 0 0 0 .07-.066.763.763 0 0 0 .164-.115c.046-.043.095-.08.143-.112l.142-.131.143-.132c.034-.043.075-.086.122-.13.046-.057.092-.107.14-.151l.413-.511c.059-.07.115-.142.174-.213.044-.07.083-.126.118-.168m-3.673-1.036a3.645 3.645 0 0 1 .166-.446c.018-.08.041-.167.07-.26.03-.082.061-.17.09-.263.042-.096.077-.19.107-.284a5.03 5.03 0 0 1 .104-.304c.07-.189.14-.39.209-.606.068-.215.143-.43.224-.647.081-.216.156-.431.224-.646.068-.215.145-.418.229-.609.07-.202.127-.396.173-.583l.16-.523a6.55 6.55 0 0 1 .147-.444c.05-.135.084-.25.1-.342a.208.208 0 0 0 .026-.12.86.86 0 0 1 .029-.1c.007-.053.017-.086.029-.1-.03.093-.065.194-.106.302-.053.098-.1.213-.139.347a13.09 13.09 0 0 0-.168.427c-.049.16-.108.336-.18.525a5.262 5.262 0 0 1-.212.567c-.083.19-.16.394-.228.609a9.07 9.07 0 0 1-.227.627c-.067.228-.14.45-.222.667-.07.202-.138.41-.207.625-.058.188-.115.382-.172.583-.045.187-.091.36-.14.522a16.13 16.13 0 0 0-.209.8.322.322 0 0 0-.023.14.166.166 0 0 1-.012.078.307.307 0 0 0-.011.08.172.172 0 0 1 .011-.08l.03-.08c.012-.028.026-.068.046-.122a.766.766 0 0 1 .042-.16c.008-.053.02-.114.04-.18M27.6 8.85c.04-.095.13-.111.266-.047.15.062.296.157.44.285.155.126.282.275.378.447.06.084.095.16.101.223l.005.039a.278.278 0 0 1-.008.117 23.276 23.276 0 0 1-.956 1.834c-.396.69-.84 1.348-1.332 1.97-.48.622-.989 1.157-1.526 1.603-.538.446-1.063.696-1.578.75a1.251 1.251 0 0 1-.672-.105 1.753 1.753 0 0 1-.567-.388 2.679 2.679 0 0 1-.367-.526 1.405 1.405 0 0 1-.132-.512c.002-.117.03-.335.088-.652.057-.318.14-.703.248-1.156-.284.51-.578.99-.882 1.436-.303.448-.605.85-.904 1.206a6.195 6.195 0 0 1-.905.855c-.302.214-.595.335-.877.365-.154.016-.34-.017-.555-.098-.202-.07-.41-.19-.623-.363-.2-.16-.37-.37-.513-.627a1.575 1.575 0 0 1-.23-.697.96.96 0 0 1 0-.195c-.011-.22.048-.583.177-1.09.14-.508.321-1.08.54-1.713.194-.63.41-1.29.65-1.976a301 301 0 0 1 .675-1.922c.197-.592.364-1.103.5-1.533.137-.43.206-.704.207-.82.002-.104.041-.16.118-.169.065-.007.146.024.244.092.123.064.25.155.378.271.13.117.247.247.354.392.103.119.193.24.27.361.077.109.12.195.125.26.01.077-.06.291-.204.644-.13.365-.292.81-.483 1.337-.19.526-.398 1.093-.62 1.701a96.541 96.541 0 0 0-.616 1.74 40.872 40.872 0 0 0-.47 1.452c-.124.429-.185.714-.183.856.32-.033.69-.293 1.106-.778.417-.486.841-1.082 1.274-1.79.443-.721.875-1.494 1.294-2.317.42-.823.801-1.59 1.142-2.302l.887-1.748c.237-.467.387-.704.452-.71a.55.55 0 0 1 .443.148c.13.116.236.261.319.434.096.172.165.34.208.503.043.165.07.298.081.4-.005.067-.059.293-.162.68-.101.388-.235.856-.397 1.406-.15.548-.316 1.137-.496 1.766-.168.628-.321 1.209-.46 1.743-.152.535-.262.976-.328 1.32-.08.347-.096.516-.044.51.32-.033.655-.184 1.004-.455.347-.27.7-.62 1.058-1.046.342-.451.69-.969 1.045-1.551.354-.583.692-1.203 1.013-1.86"/>
        <path fill="#FFF" d="M33.08 9.872c.016-.105.037-.218.063-.337l.045-.317a2.76 2.76 0 0 0 .025-.314c.002-.104.01-.209.026-.315l.01-.273a10.797 10.797 0 0 0 .021-.723c0-.13 0-.247.002-.35l-.014-.136a.298.298 0 0 0 .009-.098 2.294 2.294 0 0 0-.008-.077 5.303 5.303 0 0 0-.026.314 9.018 9.018 0 0 0-.07.806 17.9 17.9 0 0 1-.012.255c-.004.09-.013.183-.03.275l-.045.316c-.003.092-.018.191-.046.297l-.045.317c-.03.094-.05.2-.064.319l-.045.316a3.06 3.06 0 0 1-.102.322c-.004.08-.012.138-.02.178a.668.668 0 0 1-.041.16l-.062.162a.766.766 0 0 1-.041.16l-.061.163c-.01.04-.023.093-.042.16a.293.293 0 0 0-.064.124l-.062.162a1.54 1.54 0 0 0-.126.285 1.85 1.85 0 0 1-.127.268l-.066.123-.064.123a.613.613 0 0 0-.067.105.609.609 0 0 1-.066.104 1.613 1.613 0 0 0-.137.19 18.66 18.66 0 0 1-.138.17.6.6 0 0 1-.099.166.965.965 0 0 0-.122.13l-.19.235c-.001-.013.015-.035.052-.064l.069-.086a.485.485 0 0 0 .108-.07.559.559 0 0 0 .107-.108.295.295 0 0 1 .07-.065l.051-.065c.046-.07.09-.132.137-.19.058-.057.117-.122.174-.193a.682.682 0 0 0 .067-.104.354.354 0 0 1 .086-.107l.065-.123a6.73 6.73 0 0 0 .065-.124c.112-.168.204-.352.273-.555a.526.526 0 0 0 .083-.144 1.39 1.39 0 0 0 .062-.144.766.766 0 0 0 .042-.16l.06-.163c.044-.082.078-.19.104-.321a.836.836 0 0 0 .04-.16c.01-.04.023-.094.042-.16.026-.12.054-.234.081-.34a3.04 3.04 0 0 1 .064-.319M32.057 5.13c-.037.03-.077.068-.125.111-.036.03-.078.06-.126.092a1.202 1.202 0 0 0-.123.13 1.383 1.383 0 0 0-.123.129 1.149 1.149 0 0 1-.101.147 1.304 1.304 0 0 1-.101.147 1.478 1.478 0 0 1-.102.147 6.69 6.69 0 0 0-.065.123.568.568 0 0 0-.117.188c.003.026-.007.053-.03.081.012-.001.03-.022.052-.064a.226.226 0 0 0 .069-.084.786.786 0 0 0 .067-.105 1.91 1.91 0 0 0 .167-.251c.07-.086.146-.171.228-.258a.706.706 0 0 1 .243-.279l.103-.127a.286.286 0 0 0 .054-.045c.01-.014.03-.03.053-.045a.697.697 0 0 0 .161-.134c.013-.001.025-.009.037-.023l.02-.002c.012-.002.017-.009.016-.02-.012 0-.037.016-.073.045a1.449 1.449 0 0 0-.184.097m.21 7.556c.01-.014.022-.029.035-.043-.003-.013.003-.026.014-.04.014-.002.019-.009.018-.021l-.294.361c-.044.07-.088.14-.134.21a2.232 2.232 0 0 0-.174.193 2.27 2.27 0 0 0-.191.215c-.035.042-.1.108-.194.196-.048.03-.12.09-.215.178-.049.031-.09.061-.126.091l-.108.09a2.231 2.231 0 0 0-.2.137l-.112.05a.863.863 0 0 0-.092.05 5.164 5.164 0 0 1-.334.151.216.216 0 0 1-.095.03c-.013.001-.018.008-.017.021l.02-.002a.221.221 0 0 0 .094-.03c.05-.017.106-.037.17-.056.061-.02.124-.046.185-.078a.779.779 0 0 1 .093-.049.211.211 0 0 0 .112-.05 1.28 1.28 0 0 0 .22-.121.855.855 0 0 0 .235-.18c.061-.033.14-.093.234-.181.128-.13.25-.273.363-.428a2.965 2.965 0 0 0 .409-.569.8.8 0 0 0 .084-.125m-.823-6.536l-.277.34a3.596 3.596 0 0 0-.354.525l-.202.294c-.054.11-.113.22-.18.33-.066.111-.127.215-.182.312a4.162 4.162 0 0 0-.183.292 1.816 1.816 0 0 1-.163.309 1.93 1.93 0 0 1-.128.247 1.484 1.484 0 0 0-.209.43.518.518 0 0 0-.063.144c.022-.042.049-.09.082-.146a1 1 0 0 1 .081-.163c.03-.069.082-.146.15-.23.043-.083.093-.173.148-.27.056-.083.11-.18.165-.289a3.35 3.35 0 0 1 .183-.292c.054-.097.115-.201.182-.312a4.43 4.43 0 0 0 .178-.33c.068-.098.13-.195.184-.292.055-.097.11-.187.167-.27.056-.085.12-.163.19-.235.055-.083.1-.16.13-.228a.77.77 0 0 1 .1-.166.479.479 0 0 1 .104-.128 8.822 8.822 0 0 0-.103.128m-2.007 1.847a5.01 5.01 0 0 0-.11.265 1.22 1.22 0 0 0-.074.202.652.652 0 0 0-.06.181c-.002-.012.004-.025.016-.04l.064-.124c.02-.054.053-.122.096-.204.03-.082.066-.17.109-.265a3.57 3.57 0 0 1 .182-.292c.056-.097.115-.206.18-.33.054-.11.119-.227.197-.352.066-.111.14-.223.219-.335.143-.236.294-.466.451-.69a4.12 4.12 0 0 1 .426-.59c.057-.084.106-.16.151-.23.06-.059.106-.109.14-.152a.31.31 0 0 0 .05-.082c-.001-.014.003-.027.015-.041l.034-.043-.034.043-.086.106c-.034.043-.08.093-.14.152-.058.07-.114.147-.17.232-.083.073-.159.159-.227.257-.067.098-.14.203-.22.315l-.237.337a5.53 5.53 0 0 1-.235.356l-.2.333a4.177 4.177 0 0 0-.196.351c-.065.124-.124.234-.179.33-.054.11-.108.213-.162.31m-.551 3.837c-.004.22.003.466.019.737l.022.213c.022.205.055.396.099.573.064.24.163.438.297.593a.57.57 0 0 0 .506.18c.435-.045.818-.228 1.149-.55.343-.32.645-.717.907-1.185.247-.494.455-1.041.626-1.644.159-.6.277-1.198.358-1.79.104-.609.166-1.193.186-1.754.02-.547.009-1.026-.034-1.437-.287.12-.62.422-.996.903-.348.4-.778 1.004-1.29 1.811-.512.807-1.13 1.924-1.85 3.35m-.598-4.768a4.49 4.49 0 0 1 .051-.259.65.65 0 0 1 .04-.18.245.245 0 0 0 .047-.102l-.002-.02-.002-.018-.02.002c-.033.172-.078.365-.133.579a8.964 8.964 0 0 1-.186.642c-.066.241-.14.522-.223.842-.169.615-.369 1.311-.599 2.09-.217.775-.437 1.577-.663 2.406l-1.278 4.517a67.486 67.486 0 0 1-.585 2.03c0 .012.008.017.021.016.009-.04.024-.087.043-.14l.061-.163c.02-.067.043-.147.073-.241.056-.201.124-.416.205-.645.092-.244.179-.526.262-.846.097-.296.207-.626.323-.988.107-.35.211-.711.316-1.085.114-.389.23-.784.342-1.186.127-.403.247-.811.358-1.226.112-.414.22-.821.32-1.222.114-.4.222-.795.324-1.183.113-.4.217-.775.31-1.123.094-.347.175-.674.248-.98.046-.175.082-.327.107-.46.038-.133.069-.267.095-.4a2.87 2.87 0 0 0 .079-.358c.027-.107.05-.207.066-.3m-3.355 12.741c.044-.199.094-.393.152-.58.06-.188.106-.362.14-.522.036-.159.078-.32.126-.48l-.046.122a.94.94 0 0 0-.062.162l-.055.2a1.9 1.9 0 0 1-.072.242 1.353 1.353 0 0 0-.07.26c-.042.095-.078.19-.107.284-.031.081-.06.182-.086.301a1.816 1.816 0 0 1-.066.3c-.03.081-.053.168-.07.26a4.74 4.74 0 0 1-.12.52c-.047.16-.074.28-.08.358a8.396 8.396 0 0 0-.021.159c.008-.04.022-.087.043-.141a.441.441 0 0 0 .044-.142c.018-.066.037-.14.055-.22.018-.067.043-.14.074-.221.03-.081.053-.175.068-.28l.087-.282a3.56 3.56 0 0 1 .066-.3m11.99-11.934c.072-.19.192-.273.363-.252.16.035.319.129.478.28.17.139.306.313.406.523.05.098.077.187.086.264a.543.543 0 0 1-.032.256c-.225.57-.536 1.193-.932 1.87a9.484 9.484 0 0 1-1.469 1.967 9.085 9.085 0 0 1-2.07 1.62c-.796.46-1.713.751-2.753.874l-.038.003-.019.003-.038.004c-.31.019-.607-.015-.888-.102a2.85 2.85 0 0 1-.761-.388 3.193 3.193 0 0 1-.587-.58 4.714 4.714 0 0 1-.458-.654 143.61 143.61 0 0 0-.802 3.123 123.55 123.55 0 0 0-.699 2.8c-.211.828-.378 1.52-.502 2.079-.124.559-.179.895-.167 1.011.007.064-.021.1-.086.106a.635.635 0 0 1-.197-.018 3.792 3.792 0 0 1-.665-.222 3.057 3.057 0 0 1-.703-.375c-.21-.146-.32-.277-.332-.393-.008-.064.054-.35.183-.856.142-.496.32-1.138.537-1.927.214-.801.464-1.698.75-2.69.273-.976.563-1.986.87-3.031.29-1.044.574-2.067.845-3.07.284-1.004.532-1.912.745-2.727.215-.802.384-1.475.51-2.02.138-.535.201-.853.19-.956-.032-.308.022-.47.164-.485l.02-.002c.14-.015.31.052.507.2.198.148.386.33.565.545.18.227.277.418.293.572.007.065-.015.23-.065.494-.05.265-.125.604-.224 1.018.478-.765.937-1.404 1.376-1.918.452-.515.845-.79 1.18-.825.18-.02.364.02.557.117.194.11.382.297.565.563.183.254.349.6.5 1.039.138.453.24 1 .308 1.642.037.348.043.723.022 1.128-.022.418-.067.851-.137 1.3-.07.449-.166.894-.288 1.336-.12.454-.263.89-.426 1.31.446-.319.844-.666 1.195-1.04.36-.39.684-.78.968-1.174.267-.418.497-.825.689-1.221.191-.41.346-.784.467-1.121"/>
        <path fill="#FFF" d="M42.092 12.392c.06-.045.114-.09.161-.134l.125-.11a.841.841 0 0 1-.146.093c-.048.044-.108.09-.18.136a1.205 1.205 0 0 0-.2.138c-.086.048-.172.09-.26.124a.722.722 0 0 1-.148.075c-.037.016-.08.04-.128.071a3.232 3.232 0 0 1-.149.074c-.05.018-.106.038-.17.058a.736.736 0 0 1-.147.073c-.038.017-.08.041-.13.073-.049.018-.1.03-.151.035l-.169.057c-.126.039-.214.067-.265.086l-.134.014a.376.376 0 0 1-.113.031c-.05.018-.127.033-.23.044a.703.703 0 0 1-.17.037l-.059.006a.148.148 0 0 1-.056.026l-.037.004.153-.016.174-.019a1.07 1.07 0 0 0 .23-.043c.101-.011.184-.026.246-.046.065-.006.16-.03.286-.069.063-.019.113-.037.15-.054a.903.903 0 0 0 .303-.09.481.481 0 0 0 .169-.057.255.255 0 0 1 .147-.074c.038-.017.087-.042.149-.075.061-.032.154-.08.277-.146.084-.06.17-.115.255-.162.072-.047.146-.1.217-.16m-.468-6.3a.057.057 0 0 0-.014.04c-.012.014-.016.034-.014.06a1.257 1.257 0 0 1-.09.263 1.134 1.134 0 0 1-.11.244c-.02.055-.063.137-.13.248l-.162.31c-.034.042-.07.084-.103.127a1.291 1.291 0 0 1-.102.147.683.683 0 0 0-.12.15 1.005 1.005 0 0 1-.145.112 1.676 1.676 0 0 1-.122.13.29.29 0 0 1-.071.065c-.026.003-.05.018-.072.047a1.256 1.256 0 0 1-.29.206.713.713 0 0 1-.168.076.779.779 0 0 0-.148.073.827.827 0 0 1-.283.09l-.225.08-.212.023a.438.438 0 0 1-.133.034l-.04.004.175-.018.211-.022a.372.372 0 0 0 .114-.032l.136-.014c.036-.017.08-.035.13-.053a.625.625 0 0 0 .151-.035.722.722 0 0 1 .15-.075.744.744 0 0 0 .167-.075.806.806 0 0 0 .145-.094c.049-.03.105-.063.166-.095a.307.307 0 0 1 .07-.066.32.32 0 0 0 .072-.066.858.858 0 0 0 .122-.13.449.449 0 0 0 .163-.114.735.735 0 0 1 .12-.15c.034-.054.067-.103.103-.146.034-.043.068-.092.101-.147a.505.505 0 0 1 .082-.145c.033-.056.06-.11.08-.164.02-.055.041-.102.063-.143a.499.499 0 0 1 .046-.122.622.622 0 0 0 .091-.243c.02-.067.039-.128.059-.182a3.29 3.29 0 0 1 .037-.199M38.97 8.436c.539-.057.982-.227 1.329-.51.348-.27.62-.591.815-.963.194-.37.342-.763.44-1.176.088-.411.154-.776.198-1.092a.368.368 0 0 1-.118-.007l-.116.012c-.256.027-.523.146-.8.357a4.211 4.211 0 0 0-.807.845c-.263.339-.508.728-.734 1.167-.24.442-.439.891-.6 1.349.096.03.226.035.393.018m-1.132-2.24a1.04 1.04 0 0 0-.047.103l-.03.082a.13.13 0 0 1 .051-.064.733.733 0 0 1 .048-.102c.057-.072.12-.162.185-.273.08-.112.165-.225.257-.339.044-.069.09-.133.136-.19l.155-.191.172-.213a.977.977 0 0 0 .192-.215c.058-.07.122-.136.193-.196l.211-.217c.071-.072.148-.139.233-.2.086-.047.165-.1.237-.16.166-.135.344-.238.531-.31a2.09 2.09 0 0 1 .526-.192l.27-.028c.09-.009.18-.006.273.01.026-.002.046.002.06.014l.058-.006c.027.01.047.014.06.013a.146.146 0 0 1 .06.013c.026.01.046.015.059.013a.152.152 0 0 1 .06.014.13.13 0 0 0 .1.027c.135.039.265.103.391.193.054.021.102.049.145.082a.7.7 0 0 0 .125.085c.03.023.057.046.085.069a.13.13 0 0 0 .065.051c.029.023.048.035.061.033a.22.22 0 0 1-.044-.054 1.442 1.442 0 0 1-.151-.14l-.106-.085a.39.39 0 0 1-.148-.102 2.177 2.177 0 0 1-.185-.097.757.757 0 0 0-.206-.116.307.307 0 0 1-.12-.025.428.428 0 0 0-.103-.048.831.831 0 0 1-.14-.025.16.16 0 0 0-.06-.013.133.133 0 0 1-.058-.013 2.731 2.731 0 0 0-.448.008l-.135.014a18.91 18.91 0 0 1-.284.069c-.09.022-.19.06-.3.11-.174.07-.347.166-.516.288a2.07 2.07 0 0 0-.27.203c-.072.06-.15.126-.232.2l-.212.217a2.79 2.79 0 0 1-.192.214 3.804 3.804 0 0 0-.342.446l-.29.4c-.09.126-.168.252-.233.376a2.47 2.47 0 0 1-.147.268m-.372 1.091a1.02 1.02 0 0 0 .08-.164l.1-.166c.02-.055.046-.11.08-.165a.45.45 0 0 0 .08-.164l.149-.25c.057-.083.113-.16.17-.231a.613.613 0 0 0 .1-.167c.022-.028.033-.049.032-.061l.035-.043c-.001-.013.01-.027.034-.042-.013.001-.025.015-.034.042l-.035.043c.001.012-.01.033-.032.061l-.12.15c-.059.07-.116.141-.174.212a.721.721 0 0 1-.084.126.526.526 0 0 0-.082.145 1.313 1.313 0 0 1-.1.147c-.021.054-.048.11-.08.164l-.1.167c-.02.054-.048.108-.08.164-.054.109-.113.232-.176.37-.019.066-.04.126-.06.18-.02.054-.039.115-.058.182a1.955 1.955 0 0 1-.059.181 2.227 2.227 0 0 0-.098.361.761.761 0 0 1-.042.16 2.763 2.763 0 0 1-.044.317 3.17 3.17 0 0 0-.03.276c-.005.078-.004.15.003.213a.168.168 0 0 0-.011.08c.004.038.014.07.03.094l-.006-.058a.353.353 0 0 1 .006-.117.216.216 0 0 0 .01-.099.237.237 0 0 1 .008-.098c.007-.066.015-.164.029-.295a.206.206 0 0 0 .025-.12 1.28 1.28 0 0 1 .04-.179.746.746 0 0 0 .042-.16 2.282 2.282 0 0 1 .098-.36c.02-.055.04-.116.059-.183.02-.054.046-.109.08-.165.02-.053.04-.114.059-.181.019-.067.044-.135.075-.202.034-.055.06-.111.081-.165m7.88-.263c.163.06.317.168.463.321.134.168.213.36.237.58.012.128-.04.367-.16.717-.13.364-.315.767-.554 1.208-.238.453-.526.925-.864 1.415a9.35 9.35 0 0 1-1.178 1.39 7.22 7.22 0 0 1-1.404 1.102c-.513.3-1.053.481-1.619.54-.385.04-.783-.04-1.194-.245a5.164 5.164 0 0 1-1.199-.847 5.523 5.523 0 0 1-.908-1.229 3.743 3.743 0 0 1-.461-1.413c-.048-.45-.02-.94.08-1.47.099-.542.25-1.077.454-1.605.216-.542.467-1.062.75-1.56.299-.511.615-.966.95-1.365a5.55 5.55 0 0 1 1.066-.969c.375-.26.742-.41 1.102-.447.475-.05.866.02 1.17.208.305.176.543.397.714.665.181.241.29.47.325.686.085.433.01 1.077-.225 1.933a4.79 4.79 0 0 1-.658 1.336c-.27.391-.605.732-1.003 1.02a2.673 2.673 0 0 1-1.31.508 2.02 2.02 0 0 1-.886-.083 2.49 2.49 0 0 1-.68-.356c-.205.761-.277 1.45-.211 2.067.023.219.059.442.109.67.05.23.117.436.202.623.083.173.196.316.338.431.14.102.307.143.5.123a3.968 3.968 0 0 0 1.6-.519c.49-.286.929-.623 1.316-1.015a7.781 7.781 0 0 0 1.032-1.296c.29-.447.538-.875.742-1.286.215-.425.378-.787.489-1.084.112-.298.188-.494.23-.59.11-.205.291-.27.545-.193.027.01.06.02.1.03"/>
        <path fill="#FFF" d="M47.445 8.83a1.463 1.463 0 0 1-.007-.058.168.168 0 0 0 .011-.079c0-.013.005-.026.015-.04-.01.014-.016.027-.015.04-.01.014-.015.034-.013.06a.158.158 0 0 1-.013.06c-.019.067-.037.14-.055.22-.02.067-.036.147-.052.24-.017.092-.04.191-.066.298-.016.092-.031.204-.043.336a.737.737 0 0 1-.042.16l-.018.197a56.76 56.76 0 0 1-.022.353c-.004.078-.004.142.001.194-.005.066-.005.13.001.195a.388.388 0 0 0 .019.173.85.85 0 0 1-.001.176.97.97 0 0 1 .04.19.653.653 0 0 0 .035.153.17.17 0 0 1 .027.075c.003.026.012.05.028.075a.314.314 0 0 0 .052.13.297.297 0 0 0 .053.13c.028.024.043.042.044.055.013-.001.027.01.043.034.016.038.034.075.051.112.028.023.05.047.066.07l.085.07c0 .013.01.025.023.036l.02-.002-.02.002-.023-.036a.25.25 0 0 1-.068-.09.461.461 0 0 1-.117-.183c-.013-.011-.022-.024-.023-.036a.128.128 0 0 0-.026-.056c-.043-.048-.067-.084-.069-.11a.175.175 0 0 1-.028-.074.176.176 0 0 0-.027-.076l-.008-.077c-.014-.012-.023-.03-.025-.056a.635.635 0 0 1-.035-.152c-.007-.064-.015-.128-.02-.193l-.019-.173a.887.887 0 0 1 0-.175.77.77 0 0 1 .002-.175 1.243 1.243 0 0 1-.001-.195.86.86 0 0 0 0-.176.376.376 0 0 1 .039-.199.978.978 0 0 0 0-.175.733.733 0 0 1 .043-.16c.011-.131.026-.243.042-.336.014-.105.03-.204.046-.297.016-.222.038-.374.07-.455m-.434 1.624a.159.159 0 0 1-.013.06c-.01.026-.024.08-.042.159a11.012 11.012 0 0 0-.02.548c.024.231.062.41.115.533.02.076.046.132.075.168a.16.16 0 0 1 .026.055c-.015-.011-.022-.03-.026-.055l-.007-.078a.207.207 0 0 1-.03-.094 1.585 1.585 0 0 1-.046-.248l-.03-.29.01-.273a1.16 1.16 0 0 1-.004-.233.516.516 0 0 1-.001-.195l-.007-.057m-.784-6.911a.487.487 0 0 1 .045-.121c.02-.055.034-.102.044-.142a.47.47 0 0 0 .045-.121c.01-.04.017-.086.025-.14a.205.205 0 0 1 .032-.06.192.192 0 0 1 .01-.08.196.196 0 0 0 .03-.1l.042-.16a1.464 1.464 0 0 1-.007-.058l-.001-.02a.246.246 0 0 1-.033.062.167.167 0 0 1-.012.079l-.03.081-.053.24a4.82 4.82 0 0 1-.089.262c-.03.094-.059.181-.09.263-.028.094-.06.168-.093.224-.017.08-.036.147-.056.2l-.017.022.02-.002c-.003-.013.002-.026.014-.04a.278.278 0 0 1 .05-.084c-.003-.025.007-.052.03-.081.02-.054.052-.129.094-.224m-.77.1c.09.108.23.203.42.287.217-.659.397-1.23.541-1.712a.344.344 0 0 0 .023-.159.425.425 0 0 0-.145-.257.62.62 0 0 0-.401-.114c-.206.022-.397.179-.574.47-.136.312-.191.591-.165.835.026.244.126.461.301.65m-1.16-1.397a.544.544 0 0 1-.026.12l-.03.08.006.059.002.019c.011-.014.016-.04.011-.079a.115.115 0 0 1 .03-.081.138.138 0 0 1 .03-.1.253.253 0 0 1 .047-.104.435.435 0 0 1 .044-.14c.02-.054.035-.101.043-.141.01-.04.024-.087.044-.141a.517.517 0 0 0 .082-.145.463.463 0 0 1 .043-.141.452.452 0 0 0 .046-.122l.065-.123a.658.658 0 0 1 .08-.165.08.08 0 0 0 .013-.06l-.002-.019-.03.081a.444.444 0 0 0-.102.148c-.03.08-.067.162-.11.245l-.126.286c-.03.08-.06.168-.09.262-.027.107-.05.194-.07.261m-.049-.287l-.017.021c.001.013.002.026.005.039l.002.019.03-.082a.189.189 0 0 1 .028-.1.401.401 0 0 0 .048-.102.447.447 0 0 0 .043-.14 1.59 1.59 0 0 1 .062-.144.25.25 0 0 1 .049-.102.234.234 0 0 0 .032-.062.196.196 0 0 1 .03-.08c.026-.017.042-.044.05-.085.01-.026.038-.081.08-.163a.5.5 0 0 0 .082-.146.491.491 0 0 0 .082-.144.333.333 0 0 0 .086-.107.474.474 0 0 1 .089-.088c-.003-.025.01-.039.035-.041-.002-.014.004-.027.015-.041a.266.266 0 0 0 .054-.045l.02-.002-.022-.017a.673.673 0 0 1-.071.066l-.073.047a.628.628 0 0 0-.088.086c-.013.015-.047.051-.106.109A.239.239 0 0 1 44.74.7a.58.58 0 0 1-.05.083 1.313 1.313 0 0 1-.1.147c-.021.054-.048.108-.081.164a.898.898 0 0 1-.08.164 2.75 2.75 0 0 1-.078.184c-.03.094-.051.194-.066.299a.732.732 0 0 0-.036.218m7.909 4.447c.063-.136.18-.207.347-.211.183.006.357.06.524.159.165.087.307.208.427.364a.555.555 0 0 1 .128.28.394.394 0 0 1-.02.177c-.064.148-.173.4-.331.754-.157.355-.368.753-.633 1.197-.24.454-.52.924-.846 1.414-.31.5-.634.949-.968 1.347a7.785 7.785 0 0 1-1.04 1.045c-.333.282-.66.44-.983.473-.076.008-.222-.022-.437-.09a2.24 2.24 0 0 1-.662-.36 2.606 2.606 0 0 1-.633-.653c-.182-.254-.294-.573-.334-.958-.053-.501-.007-1.045.14-1.632.16-.588.332-1.158.522-1.71.2-.567.386-1.08.558-1.54.16-.458.226-.809.202-1.053-.006-.051-.105-.119-.295-.203-.202-.07-.417-.137-.645-.205-.182.487-.39 1.035-.625 1.644a43.4 43.4 0 0 1-.628 1.624c-.071.203-.178.279-.327.23-.147-.05-.301-.15-.46-.303a2.196 2.196 0 0 1-.368-.526.999.999 0 0 1-.088-.283.354.354 0 0 1 .036-.219c.139-.416.287-.854.446-1.312.146-.47.294-.914.445-1.332a3.294 3.294 0 0 1-1.135-.602c-.244-.351-.384-.693-.42-1.027-.002-.026-.003-.045-.006-.058.003-1.714.452-2.619 1.35-2.713.386-.04.846.067 1.38.323 1.11.688 1.417 1.746.918 3.175a7.891 7.891 0 0 1-.237.707c.227.067.476.151.747.253.27.1.516.218.737.35.246.118.443.259.59.425a.9.9 0 0 1 .27.537c.015.128-.025.366-.119.714-.091.36-.211.756-.361 1.187a32.39 32.39 0 0 1-.42 1.388c-.157.484-.286.92-.389 1.308-.1.4-.17.725-.208.975-.026.25.02.368.135.356.218-.023.458-.152.718-.387.26-.248.521-.548.782-.9.261-.365.51-.761.752-1.189.24-.428.463-.841.668-1.24l.513-1.047.283-.653"/>
    </g>
</svg>
